  0
SECTION
  2
HEADER
  9
$ACADVER
  1
AC1015
  9
$ACADMAINTVER
 70
     6
  9
$DWGCODEPAGE
  3
ANSI_1252
  9
$INSBASE
 10
0.0
 20
0.0
 30
0.0
  9
$EXTMIN
 10
0.0
 20
0.0
 30
0.0
  9
$EXTMAX
 10
800.0
 20
450.0
 30
0.0
  9
$LIMMIN
 10
0.0
 20
0.0
  9
$LIMMAX
 10
800.0
 20
450.0
  9
$ORTHOMODE
 70
     0
  9
$REGENMODE
 70
     1
  9
$FILLMODE
 70
     1
  9
$QTEXTMODE
 70
     0
  9
$MIRRTEXT
 70
     1
  9
$LTSCALE
 40
1.0
  9
$ATTMODE
 70
     1
  9
$TEXTSIZE
 40
3.5
  9
$TRACEWID
 40
1.0
  9
$TEXTSTYLE
  7
Standard
  9
$CLAYER
  8
0
  9
$CELTYPE
  6
ByLayer
  9
$CECOLOR
 62
   256
  9
$CELTSCALE
 40
1.0
  9
$DISPSILH
 70
     0
  9
$DIMSCALE
 40
1.0
  9
$DIMASZ
 40
3.302
  9
$DIMEXO
 40
1.0
  9
$DIMDLI
 40
3.75
  9
$DIMRND
 40
0.0
  9
$DIMDLE
 40
0.0
  9
$DIMEXE
 40
1.0
  9
$DIMTP
 40
0.0
  9
$DIMTM
 40
0.0
  9
$DIMTXT
 40
3.5
  9
$DIMCEN
 40
2.5
  9
$DIMTSZ
 40
0.0
  9
$DIMTOL
 70
     0
  9
$DIMLIM
 70
     0
  9
$DIMTIH
 70
     1
  9
$DIMTOH
 70
     1
  9
$DIMSE1
 70
     0
  9
$DIMSE2
 70
     0
  9
$DIMTAD
 70
     1
  9
$DIMZIN
 70
     1
  9
$DIMBLK
  1

  9
$DIMASO
 70
     1
  9
$DIMSHO
 70
     1
  9
$DIMPOST
  1

  9
$DIMAPOST
  1

  9
$DIMALT
 70
     0
  9
$DIMALTD
 70
     3
  9
$DIMALTF
 40
0.0393700787
  9
$DIMLFAC
 40
1.0
  9
$DIMTOFL
 70
     1
  9
$DIMTVP
 40
0.0
  9
$DIMTIX
 70
     0
  9
$DIMSOXD
 70
     0
  9
$DIMSAH
 70
     0
  9
$DIMBLK1
  1

  9
$DIMBLK2
  1

  9
$DIMSTYLE
  2
ISO-25
  9
$DIMCLRD
 70
     0
  9
$DIMCLRE
 70
     0
  9
$DIMCLRT
 70
     0
  9
$DIMTFAC
 40
1.0
  9
$DIMGAP
 40
1.524
  9
$DIMJUST
 70
     0
  9
$DIMSD1
 70
     0
  9
$DIMSD2
 70
     0
  9
$DIMTOLJ
 70
     0
  9
$DIMTZIN
 70
     1
  9
$DIMALTZ
 70
     0
  9
$DIMALTTZ
 70
     0
  9
$DIMUPT
 70
     0
  9
$DIMDEC
 70
     2
  9
$DIMTDEC
 70
     2
  9
$DIMALTU
 70
     2
  9
$DIMALTTD
 70
     3
  9
$DIMTXSTY
  7
Standard
  9
$DIMAUNIT
 70
     0
  9
$DIMADEC
 70
     2
  9
$DIMALTRND
 40
0.0
  9
$DIMAZIN
 70
     0
  9
$DIMDSEP
 70
    44
  9
$DIMATFIT
 70
     3
  9
$DIMFRAC
 70
     0
  9
$DIMLDRBLK
  1

  9
$DIMLUNIT
 70
     2
  9
$DIMLWD
 70
    -2
  9
$DIMLWE
 70
    -2
  9
$DIMTMOVE
 70
     0
  9
$LUNITS
 70
     2
  9
$LUPREC
 70
     2
  9
$SKETCHINC
 40
1.0
  9
$FILLETRAD
 40
10.0
  9
$AUNITS
 70
     0
  9
$AUPREC
 70
     2
  9
$MENU
  1
.
  9
$ELEVATION
 40
0.0
  9
$PELEVATION
 40
0.0
  9
$THICKNESS
 40
0.0
  9
$LIMCHECK
 70
     0
  9
$CHAMFERA
 40
10.0
  9
$CHAMFERB
 40
10.0
  9
$CHAMFERC
 40
20.0
  9
$CHAMFERD
 40
0.0
  9
$SKPOLY
 70
     0
  9
$TDCREATE
 40
2458317.480283079
  9
$TDUCREATE
 40
2458317.396949745
  9
$TDUPDATE
 40
2458317.480283194
  9
$TDUUPDATE
 40
2458317.396949861
  9
$TDINDWG
 40
0.0000000116
  9
$TDUSRTIMER
 40
0.0000000116
  9
$USRTIMER
 70
     1
  9
$ANGBASE
 50
0.0
  9
$ANGDIR
 70
     0
  9
$PDMODE
 70
     0
  9
$PDSIZE
 40
-1.0
  9
$PLINEWID
 40
0.0
  9
$SPLFRAME
 70
     0
  9
$SPLINETYPE
 70
     6
  9
$SPLINESEGS
 70
     8
  9
$HANDSEED
  5
F0
  9
$SURFTAB1
 70
     6
  9
$SURFTAB2
 70
     6
  9
$SURFTYPE
 70
     6
  9
$SURFU
 70
     6
  9
$SURFV
 70
     6
  9
$UCSBASE
  2

  9
$UCSNAME
  2

  9
$UCSORG
 10
0.0
 20
0.0
 30
0.0
  9
$UCSXDIR
 10
1.0
 20
0.0
 30
0.0
  9
$UCSYDIR
 10
0.0
 20
1.0
 30
0.0
  9
$UCSORTHOREF
  2

  9
$UCSORTHOVIEW
 70
     0
  9
$UCSORGTOP
 10
0.0
 20
0.0
 30
0.0
  9
$UCSORGBOTTOM
 10
0.0
 20
0.0
 30
0.0
  9
$UCSORGLEFT
 10
0.0
 20
0.0
 30
0.0
  9
$UCSORGRIGHT
 10
0.0
 20
0.0
 30
0.0
  9
$UCSORGFRONT
 10
0.0
 20
0.0
 30
0.0
  9
$UCSORGBACK
 10
0.0
 20
0.0
 30
0.0
  9
$PUCSBASE
  2

  9
$PUCSNAME
  2

  9
$PUCSORG
 10
0.0
 20
0.0
 30
0.0
  9
$PUCSXDIR
 10
1.0
 20
0.0
 30
0.0
  9
$PUCSYDIR
 10
0.0
 20
1.0
 30
0.0
  9
$PUCSORTHOREF
  2

  9
$PUCSORTHOVIEW
 70
     0
  9
$PUCSORGTOP
 10
0.0
 20
0.0
 30
0.0
  9
$PUCSORGBOTTOM
 10
0.0
 20
0.0
 30
0.0
  9
$PUCSORGLEFT
 10
0.0
 20
0.0
 30
0.0
  9
$PUCSORGRIGHT
 10
0.0
 20
0.0
 30
0.0
  9
$PUCSORGFRONT
 10
0.0
 20
0.0
 30
0.0
  9
$PUCSORGBACK
 10
0.0
 20
0.0
 30
0.0
  9
$USERI1
 70
     0
  9
$USERI2
 70
     0
  9
$USERI3
 70
     0
  9
$USERI4
 70
     0
  9
$USERI5
 70
     0
  9
$USERR1
 40
0.0
  9
$USERR2
 40
0.0
  9
$USERR3
 40
0.0
  9
$USERR4
 40
0.0
  9
$USERR5
 40
0.0
  9
$WORLDVIEW
 70
     1
  9
$SHADEDGE
 70
     3
  9
$SHADEDIF
 70
    70
  9
$TILEMODE
 70
     1
  9
$MAXACTVP
 70
    64
  9
$PINSBASE
 10
0.0
 20
0.0
 30
0.0
  9
$PLIMCHECK
 70
     0
  9
$PEXTMIN
 10
1.0000000000E+20
 20
1.0000000000E+20
 30
1.0000000000E+20
  9
$PEXTMAX
 10
-1.0000000000E+20
 20
-1.0000000000E+20
 30
-1.0000000000E+20
  9
$PLIMMIN
 10
0.0
 20
0.0
  9
$PLIMMAX
 10
420.0
 20
297.0
  9
$UNITMODE
 70
     0
  9
$VISRETAIN
 70
     1
  9
$PLINEGEN
 70
     0
  9
$PSLTSCALE
 70
     1
  9
$TREEDEPTH
 70
  3020
  9
$CMLSTYLE
  2
Standard
  9
$CMLJUST
 70
     0
  9
$CMLSCALE
 40
20.0
  9
$PROXYGRAPHICS
 70
     1
  9
$MEASUREMENT
 70
     1
  9
$CELWEIGHT
370
    -1
  9
$ENDCAPS
280
     0
  9
$JOINSTYLE
280
     0
  9
$LWDISPLAY
290
     1
  9
$INSUNITS
 70
     4
  9
$HYPERLINKBASE
  1

  9
$STYLESHEET
  1

  9
$XEDIT
290
     1
  9
$CEPSNTYPE
380
     0
  9
$PSTYLEMODE
290
     1
  9
$FINGERPRINTGUID
  2
{991DD949-9845-4A4B-B63F-674AE3DCF60B}
  9
$VERSIONGUID
  2
{FAEB1C32-E019-11D5-929B-00C0DF256EC4}
  9
$EXTNAMES
290
     1
  9
$PSVPSCALE
 40
0.0
  9
$OLESTARTUP
290
     0
  0
ENDSEC
  0
SECTION
  2
CLASSES
  0
CLASS
  1
ACDBDICTIONARYWDFLT
  2
AcDbDictionaryWithDefault
  3
ObjectDBX Classes
 90
        0
280
     0
281
     0
  0
CLASS
  1
VISUALSTYLE
  2
AcDbVisualStyle
  3
ObjectDBX Classes
 90
     4095
280
     0
281
     0
  0
CLASS
  1
MATERIAL
  2
AcDbMaterial
  3
ObjectDBX Classes
 90
     1153
280
     0
281
     0
  0
CLASS
  1
ACDBPLACEHOLDER
  2
AcDbPlaceHolder
  3
ObjectDBX Classes
 90
        0
280
     0
281
     0
  0
CLASS
  1
LAYOUT
  2
AcDbLayout
  3
ObjectDBX Classes
 90
        0
280
     0
281
     0
  0
ENDSEC
  0
SECTION
  2
TABLES
  0
TABLE
  2
VPORT
  5
8
330
0
100
AcDbSymbolTable
 70
     1
  0
VPORT
  5
29
330
8
100
AcDbSymbolTableRecord
100
AcDbViewportTableRecord
  2
*Active
 70
     0
 10
0.0
 20
0.0
 11
1.0
 21
1.0
 12
400.0
 22
225.0
 13
0.0
 23
0.0
 14
10.0
 24
10.0
 15
10.0
 25
10.0
 16
0.0
 26
0.0
 36
1.0
 17
0.0
 27
0.0
 37
0.0
 40
450.0
 41
1.7777777778
 42
50.0
 43
0.0
 44
0.0
 50
0.0
 51
0.0
 71
     0
 72
  2000
 73
     1
 74
     3
 75
     0
 76
     0
 77
     0
 78
     0
281
     0
 65
     1
110
0.0
120
0.0
130
0.0
111
1.0
121
0.0
131
0.0
112
0.0
122
1.0
132
0.0
 79
     0
146
0.0
  0
ENDTAB
  0
TABLE
  2
LTYPE
  5
5
330
0
100
AcDbSymbolTable
 70
     6
  0
LTYPE
  5
14
330
5
100
AcDbSymbolTableRecord
100
AcDbLinetypeTableRecord
  2
ByBlock
 70
     0
  3

 72
    65
 73
     0
 40
0.0
  0
LTYPE
  5
15
330
5
100
AcDbSymbolTableRecord
100
AcDbLinetypeTableRecord
  2
ByLayer
 70
     0
  3

 72
    65
 73
     0
 40
0.0
  0
LTYPE
  5
16
330
5
100
AcDbSymbolTableRecord
100
AcDbLinetypeTableRecord
  2
Continuous
 70
     0
  3
Solid line
 72
    65
 73
     0
 40
0.0
  0
LTYPE
  5
3F
330
5
100
AcDbSymbolTableRecord
100
AcDbLinetypeTableRecord
  2
HIDDEN
 70
     0
  3
Hidden __ __ __ __ __ __ __ __ __ __ __ __ __ __
 72
    65
 73
     2
 40
1.905
 49
1.27
 74
     0
 49
-0.635
 74
     0
  0
LTYPE
  5
40
330
5
100
AcDbSymbolTableRecord
100
AcDbLinetypeTableRecord
  2
PHANTOM
 70
     0
  3
Phantom ______  __  __  ______  __  __  ______
 72
    65
 73
     6
 40
12.7
 49
6.35
 74
     0
 49
-1.27
 74
     0
 49
1.27
 74
     0
 49
-1.27
 74
     0
 49
1.27
 74
     0
 49
-1.27
 74
     0
  0
LTYPE
  5
41
330
5
100
AcDbSymbolTableRecord
100
AcDbLinetypeTableRecord
  2
CENTER
 70
     0
  3
Center ____ _ ____ _ ____ _ ____ _ ____ _ ____
 72
    65
 73
     4
 40
10.16
 49
6.35
 74
     0
 49
-1.27
 74
     0
 49
1.27
 74
     0
 49
-1.27
 74
     0
  0
LTYPE
  5
42
330
5
100
AcDbSymbolTableRecord
100
AcDbLinetypeTableRecord
  2
CENTERX2
 70
     0
  3
Center (2x) ________  __  ________  __  _____
 72
    65
 73
     4
 40
20.32
 49
12.7
 74
     0
 49
-2.54
 74
     0
 49
2.54
 74
     0
 49
-2.54
 74
     0
  0
LTYPE
  5
43
330
5
100
AcDbSymbolTableRecord
100
AcDbLinetypeTableRecord
  2
DOT2
 70
     0
  3
Dot (.5x) ........................................
 72
    65
 73
     2
 40
0.635
 49
0.0
 74
     0
 49
-0.635
 74
     0
  0
ENDTAB
  0
TABLE
  2
LAYER
  5
2
330
0
100
AcDbSymbolTable
 70
     2
  0
LAYER
  5
10
330
2
100
AcDbSymbolTableRecord
100
AcDbLayerTableRecord
  2
0
 70
     0
 62
     7
  6
Continuous
370
    -3
390
F
  0
LAYER
  5
44
330
2
100
AcDbSymbolTableRecord
100
AcDbLayerTableRecord
  2
SLD-0
 70
     0
 62
   179
  6
Continuous
370
    -3
390
F
  0
ENDTAB
  0
TABLE
  2
STYLE
  5
3
330
0
100
AcDbSymbolTable
 70
     1
  0
STYLE
  5
11
330
3
100
AcDbSymbolTableRecord
100
AcDbTextStyleTableRecord
  2
Standard
 70
     0
 40
0.0
 41
1.0
 50
0.0
 71
     0
 42
3.5
  3
txt
  4

  0
ENDTAB
  0
TABLE
  2
VIEW
  5
6
330
0
100
AcDbSymbolTable
 70
     0
  0
ENDTAB
  0
TABLE
  2
UCS
  5
7
330
0
100
AcDbSymbolTable
 70
     0
  0
ENDTAB
  0
TABLE
  2
APPID
  5
9
330
0
100
AcDbSymbolTable
 70
     1
  0
APPID
  5
12
330
9
100
AcDbSymbolTableRecord
100
AcDbRegAppTableRecord
  2
ACAD
 70
     0
  0
ENDTAB
  0
TABLE
  2
DIMSTYLE
  5
A
330
0
100
AcDbSymbolTable
 70
     1
100
AcDbDimStyleTable
  0
DIMSTYLE
105
27
330
A
100
AcDbSymbolTableRecord
100
AcDbDimStyleTableRecord
  2
ISO-25
 70
     0
 41
2.5
 42
0.625
 43
3.75
 44
1.25
 73
     0
 74
     0
 77
     1
 78
     8
140
2.5
141
2.5
143
0.0393700787
147
0.625
171
     3
172
     1
178
     0
271
     2
272
     2
274
     3
278
    44
283
     0
284
     8
340
11
  0
ENDTAB
  0
TABLE
  2
BLOCK_RECORD
  5
1
330
0
100
AcDbSymbolTable
 70
     1
  0
BLOCK_RECORD
  5
1F
330
1
100
AcDbSymbolTableRecord
100
AcDbBlockTableRecord
  2
*Model_Space
340
22
  0
BLOCK_RECORD
  5
1B
330
1
100
AcDbSymbolTableRecord
100
AcDbBlockTableRecord
  2
*Paper_Space
340
1E
  0
BLOCK_RECORD
  5
23
330
1
100
AcDbSymbolTableRecord
100
AcDbBlockTableRecord
  2
*Paper_Space0
340
26
  0
ENDTAB
  0
ENDSEC
  0
SECTION
  2
BLOCKS
  0
BLOCK
  5
20
330
1F
100
AcDbEntity
  8
0
100
AcDbBlockBegin
  2
*Model_Space
 70
     0
 10
0.0
 20
0.0
 30
0.0
  3
*Model_Space
  1

  0
ENDBLK
  5
21
330
1F
100
AcDbEntity
  8
0
100
AcDbBlockEnd
  0
BLOCK
  5
1C
330
1B
100
AcDbEntity
 67
     1
  8
0
100
AcDbBlockBegin
  2
*Paper_Space
 70
     0
 10
0.0
 20
0.0
 30
0.0
  3
*Paper_Space
  1

  0
ENDBLK
  5
1D
330
1B
100
AcDbEntity
 67
     1
  8
0
100
AcDbBlockEnd
  0
BLOCK
  5
24
330
23
100
AcDbEntity
  8
0
100
AcDbBlockBegin
  2
*Paper_Space0
 70
     0
 10
0.0
 20
0.0
 30
0.0
  3
*Paper_Space0
  1

  0
ENDBLK
  5
25
330
23
100
AcDbEntity
  8
0
100
AcDbBlockEnd
  0
ENDSEC
  0
SECTION
  2
ENTITIES
  0
LINE
  5
45
330
1F
100
AcDbEntity
  8
SLD-0
  6
Continuous
 62
   179
370
    15
100
AcDbLine
 10
44.0203875392
 20
185.5594545355
 30
0.0
 11
54.305868046
 21
185.5594545355
 31
0.0
  0
LINE
  5
46
330
1F
100
AcDbEntity
  8
SLD-0
  6
Continuous
 62
   179
370
    15
100
AcDbLine
 10
44.0203875392
 20
201.0440097715
 30
0.0
 11
54.305868046
 21
201.0440097715
 31
0.0
  0
LINE
  5
47
330
1F
100
AcDbEntity
  8
SLD-0
  6
Continuous
 62
   179
370
    15
100
AcDbLine
 10
41.0203875392
 20
198.0440097715
 30
0.0
 11
41.0203875392
 21
188.5594545355
 31
0.0
  0
LINE
  5
48
330
1F
100
AcDbEntity
  8
SLD-0
  6
Continuous
 62
   179
370
    15
100
AcDbLine
 10
19.5959429067
 20
174.1886711145
 30
0.0
 11
36.0923816438
 21
189.8738095859
 31
0.0
  0
LINE
  5
49
330
1F
100
AcDbEntity
  8
SLD-0
  6
Continuous
 62
   179
370
    15
100
AcDbLine
 10
37.025196758
 20
194.5555464791
 30
0.0
 11
37.025196758
 21
192.0479178279
 31
0.0
  0
LINE
  5
4A
330
1F
100
AcDbEntity
  8
SLD-0
  6
Continuous
 62
   179
370
    15
100
AcDbLine
 10
19.5959429067
 20
212.4147931925
 30
0.0
 11
36.0923816439
 21
196.7296547211
 31
0.0
  0
LINE
  5
4B
330
1F
100
AcDbEntity
  8
SLD-0
  6
Continuous
 62
   179
370
    15
100
AcDbLine
 10
18.6631277926
 20
219.3017321535
 30
0.0
 11
18.6631277926
 21
214.5889014344
 31
0.0
  0
LINE
  5
4C
330
1F
100
AcDbEntity
  8
SLD-0
  6
Continuous
 62
   179
370
    15
100
AcDbLine
 10
21.6631277926
 20
222.3017321535
 30
0.0
 11
28.464553204
 21
222.3017321535
 31
0.0
  0
LINE
  5
4D
330
1F
100
AcDbEntity
  8
SLD-0
  6
Continuous
 62
   179
370
    15
100
AcDbLine
 10
30.5317380898
 20
221.4758403955
 30
0.0
 11
36.1565864609
 21
216.1276239115
 31
0.0
  0
LINE
  5
4E
330
1F
100
AcDbEntity
  8
SLD-0
  6
Continuous
 62
   179
370
    15
100
AcDbLine
 10
38.2237713467
 20
215.3017321535
 30
0.0
 11
60.1024842385
 21
215.3017321535
 31
0.0
  0
LINE
  5
4F
330
1F
100
AcDbEntity
  8
SLD-0
  6
Continuous
 62
   179
370
    15
100
AcDbLine
 10
62.1696691243
 20
216.1276239115
 30
0.0
 11
67.7945174954
 21
221.4758403955
 31
0.0
  0
LINE
  5
50
330
1F
100
AcDbEntity
  8
SLD-0
  6
Continuous
 62
   179
370
    15
100
AcDbLine
 10
69.8617023812
 20
222.3017321535
 30
0.0
 11
76.6631277926
 21
222.3017321535
 31
0.0
  0
LINE
  5
51
330
1F
100
AcDbEntity
  8
SLD-0
  6
Continuous
 62
   179
370
    15
100
AcDbLine
 10
62.2338739413
 20
196.7296547211
 30
0.0
 11
78.7303126785
 21
212.4147931924
 31
0.0
  0
LINE
  5
52
330
1F
100
AcDbEntity
  8
SLD-0
  6
Continuous
 62
   179
370
    15
100
AcDbLine
 10
61.3010588271
 20
194.5555464791
 30
0.0
 11
61.3010588271
 21
192.0479178279
 31
0.0
  0
LINE
  5
53
330
1F
100
AcDbEntity
  8
SLD-0
  6
Continuous
 62
   179
370
    15
100
AcDbLine
 10
62.2338739413
 20
189.8738095859
 30
0.0
 11
78.7303126784
 21
174.1886711145
 31
0.0
  0
LINE
  5
54
330
1F
100
AcDbEntity
  8
SLD-0
  6
Continuous
 62
   179
370
    15
100
AcDbLine
 10
62.1696691242
 20
170.4758403955
 30
0.0
 11
67.7945174953
 21
165.1276239115
 31
0.0
  0
LINE
  5
55
330
1F
100
AcDbEntity
  8
SLD-0
  6
Continuous
 62
   179
370
    15
100
AcDbLine
 10
38.2237713466
 20
171.3017321535
 30
0.0
 11
60.1024842384
 21
171.3017321535
 31
0.0
  0
LINE
  5
56
330
1F
100
AcDbEntity
  8
SLD-0
  6
Continuous
 62
   179
370
    15
100
AcDbLine
 10
30.5317380897
 20
165.1276239115
 30
0.0
 11
36.1565864608
 21
170.4758403955
 31
0.0
  0
LINE
  5
57
330
1F
100
AcDbEntity
  8
SLD-0
  6
Continuous
 62
   179
370
    15
100
AcDbLine
 10
21.6631277925
 20
164.3017321535
 30
0.0
 11
28.4645532039
 21
164.3017321535
 31
0.0
  0
LINE
  5
58
330
1F
100
AcDbEntity
  8
SLD-0
  6
Continuous
 62
   179
370
    15
100
AcDbLine
 10
18.6631277925
 20
172.0145628725
 30
0.0
 11
18.6631277925
 21
167.3017321535
 31
0.0
  0
LINE
  5
59
330
1F
100
AcDbEntity
  8
SLD-0
  6
Continuous
 62
   179
370
    15
100
AcDbLine
 10
57.305868046
 20
198.0440097715
 30
0.0
 11
57.305868046
 21
188.5594545355
 31
0.0
  0
LINE
  5
5A
330
1F
100
AcDbEntity
  8
SLD-0
  6
Continuous
 62
   179
370
    15
100
AcDbLine
 10
69.8617023811
 20
164.3017321535
 30
0.0
 11
76.6631277925
 21
164.3017321535
 31
0.0
  0
LINE
  5
5B
330
1F
100
AcDbEntity
  8
SLD-0
  6
Continuous
 62
   179
370
    15
100
AcDbLine
 10
44.0203875392
 20
259.0440097715
 30
0.0
 11
54.305868046
 21
259.0440097715
 31
0.0
  0
LINE
  5
5C
330
1F
100
AcDbEntity
  8
SLD-0
  6
Continuous
 62
   179
370
    15
100
AcDbLine
 10
41.0203875392
 20
246.5594545355
 30
0.0
 11
41.0203875392
 21
256.0440097715
 31
0.0
  0
LINE
  5
5D
330
1F
100
AcDbEntity
  8
SLD-0
  6
Continuous
 62
   179
370
    15
100
AcDbLine
 10
44.0203875392
 20
243.5594545355
 30
0.0
 11
54.305868046
 21
243.5594545355
 31
0.0
  0
LINE
  5
5E
330
1F
100
AcDbEntity
  8
SLD-0
  6
Continuous
 62
   179
370
    15
100
AcDbLine
 10
30.5317380899
 20
279.4758403955
 30
0.0
 11
36.156586461
 21
274.1276239115
 31
0.0
  0
LINE
  5
5F
330
1F
100
AcDbEntity
  8
SLD-0
  6
Continuous
 62
   179
370
    15
100
AcDbLine
 10
38.2237713468
 20
273.3017321535
 30
0.0
 11
60.1024842386
 21
273.3017321535
 31
0.0
  0
LINE
  5
60
330
1F
100
AcDbEntity
  8
SLD-0
  6
Continuous
 62
   179
370
    15
100
AcDbLine
 10
62.1696691244
 20
274.1276239115
 30
0.0
 11
67.7945174955
 21
279.4758403955
 31
0.0
  0
LINE
  5
61
330
1F
100
AcDbEntity
  8
SLD-0
  6
Continuous
 62
   179
370
    15
100
AcDbLine
 10
69.8617023813
 20
280.3017321535
 30
0.0
 11
76.6631277927
 21
280.3017321535
 31
0.0
  0
LINE
  5
62
330
1F
100
AcDbEntity
  8
SLD-0
  6
Continuous
 62
   179
370
    15
100
AcDbLine
 10
62.2338739413
 20
254.7296547211
 30
0.0
 11
78.7303126785
 21
270.4147931925
 31
0.0
  0
LINE
  5
63
330
1F
100
AcDbEntity
  8
SLD-0
  6
Continuous
 62
   179
370
    15
100
AcDbLine
 10
61.3010588271
 20
250.0479178279
 30
0.0
 11
61.3010588271
 21
252.5555464791
 31
0.0
  0
LINE
  5
64
330
1F
100
AcDbEntity
  8
SLD-0
  6
Continuous
 62
   179
370
    15
100
AcDbLine
 10
62.2338739413
 20
247.8738095859
 30
0.0
 11
78.7303126784
 21
232.1886711145
 31
0.0
  0
LINE
  5
65
330
1F
100
AcDbEntity
  8
SLD-0
  6
Continuous
 62
   179
370
    15
100
AcDbLine
 10
62.1696691243
 20
228.4758403955
 30
0.0
 11
67.7945174954
 21
223.1276239115
 31
0.0
  0
LINE
  5
66
330
1F
100
AcDbEntity
  8
SLD-0
  6
Continuous
 62
   179
370
    15
100
AcDbLine
 10
38.2237713467
 20
229.3017321535
 30
0.0
 11
60.1024842385
 21
229.3017321535
 31
0.0
  0
LINE
  5
67
330
1F
100
AcDbEntity
  8
SLD-0
  6
Continuous
 62
   179
370
    15
100
AcDbLine
 10
30.5317380898
 20
223.1276239115
 30
0.0
 11
36.1565864609
 21
228.4758403955
 31
0.0
  0
LINE
  5
68
330
1F
100
AcDbEntity
  8
SLD-0
  6
Continuous
 62
   179
370
    15
100
AcDbLine
 10
18.6631277926
 20
225.3017321535
 30
0.0
 11
18.6631277926
 21
230.0145628725
 31
0.0
  0
LINE
  5
69
330
1F
100
AcDbEntity
  8
SLD-0
  6
Continuous
 62
   179
370
    15
100
AcDbLine
 10
19.5959429068
 20
232.1886711145
 30
0.0
 11
36.0923816439
 21
247.8738095859
 31
0.0
  0
LINE
  5
6A
330
1F
100
AcDbEntity
  8
SLD-0
  6
Continuous
 62
   179
370
    15
100
AcDbLine
 10
37.0251967581
 20
250.0479178279
 30
0.0
 11
37.0251967581
 21
252.5555464791
 31
0.0
  0
LINE
  5
6B
330
1F
100
AcDbEntity
  8
SLD-0
  6
Continuous
 62
   179
370
    15
100
AcDbLine
 10
19.5959429068
 20
270.4147931925
 30
0.0
 11
36.0923816439
 21
254.7296547211
 31
0.0
  0
LINE
  5
6C
330
1F
100
AcDbEntity
  8
SLD-0
  6
Continuous
 62
   179
370
    15
100
AcDbLine
 10
18.6631277927
 20
272.5889014344
 30
0.0
 11
18.6631277927
 21
277.3017321535
 31
0.0
  0
LINE
  5
6D
330
1F
100
AcDbEntity
  8
SLD-0
  6
Continuous
 62
   179
370
    15
100
AcDbLine
 10
21.6631277927
 20
280.3017321535
 30
0.0
 11
28.4645532041
 21
280.3017321535
 31
0.0
  0
LINE
  5
6E
330
1F
100
AcDbEntity
  8
SLD-0
  6
Continuous
 62
   179
370
    15
100
AcDbLine
 10
57.305868046
 20
246.5594545355
 30
0.0
 11
57.305868046
 21
256.0440097715
 31
0.0
  0
LINE
  5
6F
330
1F
100
AcDbEntity
  8
SLD-0
  6
Continuous
 62
   179
370
    15
100
AcDbLine
 10
121.6131277926
 20
53.5892321535
 30
0.0
 11
121.6131277926
 21
388.5892321535
 31
0.0
  0
LINE
  5
70
330
1F
100
AcDbEntity
  8
SLD-0
  6
Continuous
 62
   179
370
    15
100
AcDbLine
 10
320.1631277926
 20
272.0892321535
 30
0.0
 11
320.1631277926
 21
170.0892321535
 31
0.0
  0
LINE
  5
71
330
1F
100
AcDbEntity
  8
SLD-0
  6
Continuous
 62
   179
370
    15
100
AcDbLine
 10
330.1631277926
 20
282.0892321535
 30
0.0
 11
332.5173764815
 21
282.0892321535
 31
0.0
  0
LINE
  5
72
330
1F
100
AcDbEntity
  8
SLD-0
  6
Continuous
 62
   179
370
    15
100
AcDbLine
 10
330.1631277926
 20
160.0892321535
 30
0.0
 11
332.5173764815
 21
160.0892321535
 31
0.0
  0
LINE
  5
73
330
1F
100
AcDbEntity
  8
SLD-0
  6
Continuous
 62
   179
370
    15
100
AcDbLine
 10
337.8088791037
 20
160.0892321535
 30
0.0
 11
340.1631277926
 21
160.0892321535
 31
0.0
  0
LINE
  5
74
330
1F
100
AcDbEntity
  8
SLD-0
  6
Continuous
 62
   179
370
    15
100
AcDbLine
 10
350.1631277926
 20
272.0892321535
 30
0.0
 11
350.1631277926
 21
170.0892321535
 31
0.0
  0
LINE
  5
75
330
1F
100
AcDbEntity
  8
SLD-0
  6
Continuous
 62
   179
370
    15
100
AcDbLine
 10
782.7131277926
 20
53.5892321535
 30
0.0
 11
782.7131277926
 21
388.5892321535
 31
0.0
  0
LINE
  5
76
330
1F
100
AcDbEntity
  8
SLD-0
  6
Continuous
 62
   179
370
    15
100
AcDbLine
 10
141.6131277926
 20
33.5892321535
 30
0.0
 11
762.7131277926
 21
33.5892321535
 31
0.0
  0
LINE
  5
77
330
1F
100
AcDbEntity
  8
SLD-0
  6
Continuous
 62
   179
370
    15
100
AcDbLine
 10
141.6131277926
 20
408.5892321535
 30
0.0
 11
762.7131277926
 21
408.5892321535
 31
0.0
  0
LINE
  5
78
330
1F
100
AcDbEntity
  8
SLD-0
  6
Continuous
 62
   179
370
    15
100
AcDbLine
 10
337.8088791037
 20
282.0892321535
 30
0.0
 11
340.1631277926
 21
282.0892321535
 31
0.0
  0
LINE
  5
79
330
1F
100
AcDbEntity
  8
SLD-0
  6
Continuous
 62
   179
370
    15
100
AcDbLine
 10
96.6131277926
 20
338.8392321535
 30
0.0
 11
96.6131277926
 21
313.8267321535
 31
0.0
  0
LINE
  5
7A
330
1F
100
AcDbEntity
  8
SLD-0
  6
Continuous
 62
   179
370
    15
100
AcDbLine
 10
96.6131277926
 20
313.8267321535
 30
0.0
 11
36.6131277926
 21
313.8267321535
 31
0.0
  0
LINE
  5
7B
330
1F
100
AcDbEntity
  8
SLD-0
  6
Continuous
 62
   179
370
    15
100
AcDbLine
 10
36.6131277926
 20
313.8267321535
 30
0.0
 11
36.6131277926
 21
333.8267321535
 31
0.0
  0
LINE
  5
7C
330
1F
100
AcDbEntity
  8
SLD-0
  6
Continuous
 62
   179
370
    15
100
AcDbLine
 10
36.6131277926
 20
333.8267321535
 30
0.0
 11
69.6631277926
 21
333.8267321535
 31
0.0
  0
LINE
  5
7D
330
1F
100
AcDbEntity
  8
SLD-0
  6
Continuous
 62
   179
370
    15
100
AcDbLine
 10
79.6631277926
 20
343.8267321535
 30
0.0
 11
79.6631277926
 21
403.5892321535
 31
0.0
  0
LINE
  5
7E
330
1F
100
AcDbEntity
  8
SLD-0
  6
Continuous
 62
   179
370
    15
100
AcDbLine
 10
96.6131277926
 20
403.5892321535
 30
0.0
 11
79.6631277926
 21
403.5892321535
 31
0.0
  0
LINE
  5
7F
330
1F
100
AcDbEntity
  8
SLD-0
  6
Continuous
 62
   179
370
    15
100
AcDbLine
 10
121.6131277926
 20
338.8392321535
 30
0.0
 11
96.6131277926
 21
338.8392321535
 31
0.0
  0
LINE
  5
80
330
1F
100
AcDbEntity
  8
SLD-0
  6
Continuous
 62
   179
370
    15
100
AcDbLine
 10
96.6131277926
 20
388.5892321535
 30
0.0
 11
121.6131277926
 21
388.5892321535
 31
0.0
  0
LINE
  5
81
330
1F
100
AcDbEntity
  8
SLD-0
  6
Continuous
 62
   179
370
    15
100
AcDbLine
 10
96.6131277926
 20
403.5892321535
 30
0.0
 11
96.6131277926
 21
388.5892321535
 31
0.0
  0
LINE
  5
82
330
1F
100
AcDbEntity
  8
SLD-0
  6
Continuous
 62
   179
370
    15
100
AcDbLine
 10
96.6131277926
 20
224.0642321535
 30
0.0
 11
79.6631277926
 21
224.0642321535
 31
0.0
  0
LINE
  5
83
330
1F
100
AcDbEntity
  8
SLD-0
  6
Continuous
 62
   179
370
    15
100
AcDbLine
 10
79.6631277926
 20
283.8267321535
 30
0.0
 11
79.6631277926
 21
224.0642321535
 31
0.0
  0
LINE
  5
84
330
1F
100
AcDbEntity
  8
SLD-0
  6
Continuous
 62
   179
370
    15
100
AcDbLine
 10
36.6131277926
 20
293.8267321535
 30
0.0
 11
69.6631277926
 21
293.8267321535
 31
0.0
  0
LINE
  5
85
330
1F
100
AcDbEntity
  8
SLD-0
  6
Continuous
 62
   179
370
    15
100
AcDbLine
 10
36.6131277926
 20
313.8267321535
 30
0.0
 11
36.6131277926
 21
293.8267321535
 31
0.0
  0
LINE
  5
86
330
1F
100
AcDbEntity
  8
SLD-0
  6
Continuous
 62
   179
370
    15
100
AcDbLine
 10
96.6131277926
 20
288.8142321535
 30
0.0
 11
96.6131277926
 21
313.8267321535
 31
0.0
  0
LINE
  5
87
330
1F
100
AcDbEntity
  8
SLD-0
  6
Continuous
 62
   179
370
    15
100
AcDbLine
 10
121.6131277926
 20
288.8142321535
 30
0.0
 11
96.6131277926
 21
288.8142321535
 31
0.0
  0
LINE
  5
88
330
1F
100
AcDbEntity
  8
SLD-0
  6
Continuous
 62
   179
370
    15
100
AcDbLine
 10
96.6131277926
 20
239.0642321535
 30
0.0
 11
121.6131277926
 21
239.0642321535
 31
0.0
  0
LINE
  5
89
330
1F
100
AcDbEntity
  8
SLD-0
  6
Continuous
 62
   179
370
    15
100
AcDbLine
 10
96.6131277926
 20
224.0642321535
 30
0.0
 11
96.6131277926
 21
239.0642321535
 31
0.0
  0
LINE
  5
8A
330
1F
100
AcDbEntity
  8
SLD-0
  6
Continuous
 62
   179
370
    15
100
AcDbLine
 10
96.6131277926
 20
44.5392321535
 30
0.0
 11
96.6131277926
 21
59.5392321535
 31
0.0
  0
LINE
  5
8B
330
1F
100
AcDbEntity
  8
SLD-0
  6
Continuous
 62
   179
370
    15
100
AcDbLine
 10
96.6131277926
 20
44.5392321535
 30
0.0
 11
79.6631277926
 21
44.5392321535
 31
0.0
  0
LINE
  5
8C
330
1F
100
AcDbEntity
  8
SLD-0
  6
Continuous
 62
   179
370
    15
100
AcDbLine
 10
79.6631277926
 20
104.3017321535
 30
0.0
 11
79.6631277926
 21
44.5392321535
 31
0.0
  0
LINE
  5
8D
330
1F
100
AcDbEntity
  8
SLD-0
  6
Continuous
 62
   179
370
    15
100
AcDbLine
 10
36.6131277926
 20
114.3017321535
 30
0.0
 11
69.6631277926
 21
114.3017321535
 31
0.0
  0
LINE
  5
8E
330
1F
100
AcDbEntity
  8
SLD-0
  6
Continuous
 62
   179
370
    15
100
AcDbLine
 10
36.6131277926
 20
134.3017321535
 30
0.0
 11
36.6131277926
 21
114.3017321535
 31
0.0
  0
LINE
  5
8F
330
1F
100
AcDbEntity
  8
SLD-0
  6
Continuous
 62
   179
370
    15
100
AcDbLine
 10
96.6131277926
 20
134.3017321535
 30
0.0
 11
36.6131277926
 21
134.3017321535
 31
0.0
  0
LINE
  5
90
330
1F
100
AcDbEntity
  8
SLD-0
  6
Continuous
 62
   179
370
    15
100
AcDbLine
 10
121.6131277926
 20
109.2892321535
 30
0.0
 11
96.6131277926
 21
109.2892321535
 31
0.0
  0
LINE
  5
91
330
1F
100
AcDbEntity
  8
SLD-0
  6
Continuous
 62
   179
370
    15
100
AcDbLine
 10
96.6131277926
 20
59.5392321535
 30
0.0
 11
121.6131277926
 21
59.5392321535
 31
0.0
  0
LINE
  5
92
330
1F
100
AcDbEntity
  8
SLD-0
  6
Continuous
 62
   179
370
    15
100
AcDbLine
 10
96.6131277926
 20
109.2892321535
 30
0.0
 11
96.6131277926
 21
134.3017321535
 31
0.0
  0
LINE
  5
93
330
1F
100
AcDbEntity
  8
SLD-0
  6
Continuous
 62
   179
370
    15
100
AcDbLine
 10
36.6131277926
 20
134.3017321535
 30
0.0
 11
36.6131277926
 21
154.3017321535
 31
0.0
  0
LINE
  5
94
330
1F
100
AcDbEntity
  8
SLD-0
  6
Continuous
 62
   179
370
    15
100
AcDbLine
 10
36.6131277926
 20
154.3017321535
 30
0.0
 11
69.6631277926
 21
154.3017321535
 31
0.0
  0
LINE
  5
95
330
1F
100
AcDbEntity
  8
SLD-0
  6
Continuous
 62
   179
370
    15
100
AcDbLine
 10
79.6631277926
 20
164.3017321535
 30
0.0
 11
79.6631277926
 21
224.0642321535
 31
0.0
  0
LINE
  5
96
330
1F
100
AcDbEntity
  8
SLD-0
  6
Continuous
 62
   179
370
    15
100
AcDbLine
 10
121.6131277926
 20
159.3142321535
 30
0.0
 11
96.6131277926
 21
159.3142321535
 31
0.0
  0
LINE
  5
97
330
1F
100
AcDbEntity
  8
SLD-0
  6
Continuous
 62
   179
370
    15
100
AcDbLine
 10
96.6131277926
 20
209.0642321535
 30
0.0
 11
121.6131277926
 21
209.0642321535
 31
0.0
  0
LINE
  5
98
330
1F
100
AcDbEntity
  8
SLD-0
  6
Continuous
 62
   179
370
    15
100
AcDbLine
 10
96.6131277926
 20
224.0642321535
 30
0.0
 11
96.6131277926
 21
209.0642321535
 31
0.0
  0
LINE
  5
99
330
1F
100
AcDbEntity
  8
SLD-0
  6
Continuous
 62
   179
370
    15
100
AcDbLine
 10
96.6131277926
 20
159.3142321535
 30
0.0
 11
96.6131277926
 21
134.3017321535
 31
0.0
  0
CIRCLE
  5
9A
330
1F
100
AcDbEntity
  8
SLD-0
  6
Continuous
 62
   179
370
    15
100
AcDbCircle
 10
49.1631277926
 20
178.3017321535
 30
0.0
 40
2.250000000000028
  0
ARC
  5
9B
330
1F
100
AcDbEntity
  8
SLD-0
  6
Continuous
 62
   179
370
    15
100
AcDbCircle
 10
44.0203875392
 20
188.5594545355
 30
0.0
 40
3.000000000000007
100
AcDbArc
 50
180.0
 51
270.0
  0
ARC
  5
9C
330
1F
100
AcDbEntity
  8
SLD-0
  6
Continuous
 62
   179
370
    15
100
AcDbCircle
 10
54.305868046
 20
188.5594545355
 30
0.0
 40
3.000000000000014
100
AcDbArc
 50
270.0
 51
0.0
  0
ARC
  5
9D
330
1F
100
AcDbEntity
  8
SLD-0
  6
Continuous
 62
   179
370
    15
100
AcDbCircle
 10
54.305868046
 20
198.0440097715
 30
0.0
 40
3.000000000000014
100
AcDbArc
 50
0.0
 51
90.0
  0
ARC
  5
9E
330
1F
100
AcDbEntity
  8
SLD-0
  6
Continuous
 62
   179
370
    15
100
AcDbCircle
 10
44.0203875392
 20
198.0440097715
 30
0.0
 40
3.000000000000007
100
AcDbArc
 50
90.0
 51
180.0
  0
CIRCLE
  5
9F
330
1F
100
AcDbEntity
  8
SLD-0
  6
Continuous
 62
   179
370
    15
100
AcDbCircle
 10
49.1631277926
 20
208.3017321535
 30
0.0
 40
2.249999999999972
  0
CIRCLE
  5
A0
330
1F
100
AcDbEntity
  8
SLD-0
  6
Continuous
 62
   179
370
    15
100
AcDbCircle
 10
74.6631277926
 20
169.3017321535
 30
0.0
 40
1.75
  0
CIRCLE
  5
A1
330
1F
100
AcDbEntity
  8
SLD-0
  6
Continuous
 62
   179
370
    15
100
AcDbCircle
 10
74.6631277926
 20
217.3017321535
 30
0.0
 40
1.749999999999972
  0
CIRCLE
  5
A2
330
1F
100
AcDbEntity
  8
SLD-0
  6
Continuous
 62
   179
370
    15
100
AcDbCircle
 10
23.6631277926
 20
217.3017321535
 30
0.0
 40
1.749999999999972
  0
CIRCLE
  5
A3
330
1F
100
AcDbEntity
  8
SLD-0
  6
Continuous
 62
   179
370
    15
100
AcDbCircle
 10
23.6631277926
 20
169.3017321535
 30
0.0
 40
1.750000000000004
  0
ARC
  5
A4
330
1F
100
AcDbEntity
  8
SLD-0
  6
Continuous
 62
   179
370
    15
100
AcDbCircle
 10
21.6631277925
 20
172.0145628725
 30
0.0
 40
3.000000000000053
100
AcDbArc
 50
133.5558744691
 51
180.0
  0
ARC
  5
A5
330
1F
100
AcDbEntity
  8
SLD-0
  6
Continuous
 62
   179
370
    15
100
AcDbCircle
 10
34.025196758
 20
192.0479178279
 30
0.0
 40
3.000000000001087
100
AcDbArc
 50
313.5558744686
 51
0.0
  0
ARC
  5
A6
330
1F
100
AcDbEntity
  8
SLD-0
  6
Continuous
 62
   179
370
    15
100
AcDbCircle
 10
34.025196758
 20
194.5555464791
 30
0.0
 40
3.000000000000064
100
AcDbArc
 50
0.0
 51
46.4441255309
  0
ARC
  5
A7
330
1F
100
AcDbEntity
  8
SLD-0
  6
Continuous
 62
   179
370
    15
100
AcDbCircle
 10
21.6631277926
 20
214.5889014344
 30
0.0
 40
2.999999999964825
100
AcDbArc
 50
180.0
 51
226.4441255301
  0
ARC
  5
A8
330
1F
100
AcDbEntity
  8
SLD-0
  6
Continuous
 62
   179
370
    15
100
AcDbCircle
 10
21.6631277926
 20
219.3017321535
 30
0.0
 40
3.0
100
AcDbArc
 50
90.0
 51
180.0
  0
ARC
  5
A9
330
1F
100
AcDbEntity
  8
SLD-0
  6
Continuous
 62
   179
370
    15
100
AcDbCircle
 10
28.464553204
 20
219.3017321535
 30
0.0
 40
3.000000000000055
100
AcDbArc
 50
46.4441255309
 51
90.0
  0
ARC
  5
AA
330
1F
100
AcDbEntity
  8
SLD-0
  6
Continuous
 62
   179
370
    15
100
AcDbCircle
 10
38.2237713467
 20
218.3017321535
 30
0.0
 40
3.000000000002058
100
AcDbArc
 50
226.4441255314
 51
270.0
  0
ARC
  5
AB
330
1F
100
AcDbEntity
  8
SLD-0
  6
Continuous
 62
   179
370
    15
100
AcDbCircle
 10
60.1024842385
 20
218.3017321535
 30
0.0
 40
3.0
100
AcDbArc
 50
270.0
 51
313.5558744691
  0
ARC
  5
AC
330
1F
100
AcDbEntity
  8
SLD-0
  6
Continuous
 62
   179
370
    15
100
AcDbCircle
 10
69.8617023812
 20
219.3017321535
 30
0.0
 40
3.000000000002042
100
AcDbArc
 50
90.0
 51
133.5558744686
  0
ARC
  5
AD
330
1F
100
AcDbEntity
  8
SLD-0
  6
Continuous
 62
   179
370
    15
100
AcDbCircle
 10
76.6631277926
 20
219.3017321535
 30
0.0
 40
3.0
100
AcDbArc
 50
0.0
 51
90.0
  0
ARC
  5
AE
330
1F
100
AcDbEntity
  8
SLD-0
  6
Continuous
 62
   179
370
    15
100
AcDbCircle
 10
76.6631277927
 20
214.5889014344
 30
0.0
 40
3.00000000000005
100
AcDbArc
 50
313.5558744691
 51
0.0
  0
ARC
  5
AF
330
1F
100
AcDbEntity
  8
SLD-0
  6
Continuous
 62
   179
370
    15
100
AcDbCircle
 10
64.3010588271
 20
194.5555464791
 30
0.0
 40
3.000000000035487
100
AcDbArc
 50
133.5558744699
 51
180.0
  0
ARC
  5
B0
330
1F
100
AcDbEntity
  8
SLD-0
  6
Continuous
 62
   179
370
    15
100
AcDbCircle
 10
64.3010588271
 20
192.0479178279
 30
0.0
 40
3.000000000000055
100
AcDbArc
 50
180.0
 51
226.4441255309
  0
ARC
  5
B1
330
1F
100
AcDbEntity
  8
SLD-0
  6
Continuous
 62
   179
370
    15
100
AcDbCircle
 10
76.6631277926
 20
172.0145628725
 30
0.0
 40
3.000000000002063
100
AcDbArc
 50
0.0
 51
46.4441255314
  0
ARC
  5
B2
330
1F
100
AcDbEntity
  8
SLD-0
  6
Continuous
 62
   179
370
    15
100
AcDbCircle
 10
76.6631277925
 20
167.3017321535
 30
0.0
 40
3.000000000000028
100
AcDbArc
 50
270.0
 51
0.0
  0
ARC
  5
B3
330
1F
100
AcDbEntity
  8
SLD-0
  6
Continuous
 62
   179
370
    15
100
AcDbCircle
 10
69.8617023811
 20
167.3017321535
 30
0.0
 40
3.00000000000006
100
AcDbArc
 50
226.4441255309
 51
270.0
  0
ARC
  5
B4
330
1F
100
AcDbEntity
  8
SLD-0
  6
Continuous
 62
   179
370
    15
100
AcDbCircle
 10
60.1024842384
 20
168.3017321535
 30
0.0
 40
3.000000000001023
100
AcDbArc
 50
46.4441255314
 51
90.0
  0
ARC
  5
B5
330
1F
100
AcDbEntity
  8
SLD-0
  6
Continuous
 62
   179
370
    15
100
AcDbCircle
 10
38.2237713466
 20
168.3017321535
 30
0.0
 40
3.0
100
AcDbArc
 50
90.0
 51
133.5558744691
  0
ARC
  5
B6
330
1F
100
AcDbEntity
  8
SLD-0
  6
Continuous
 62
   179
370
    15
100
AcDbCircle
 10
28.4645532039
 20
167.3017321535
 30
0.0
 40
3.000000000001086
100
AcDbArc
 50
270.0
 51
313.5558744686
  0
ARC
  5
B7
330
1F
100
AcDbEntity
  8
SLD-0
  6
Continuous
 62
   179
370
    15
100
AcDbCircle
 10
21.6631277925
 20
167.3017321535
 30
0.0
 40
3.000000000000018
100
AcDbArc
 50
180.0
 51
270.0
  0
CIRCLE
  5
B8
330
1F
100
AcDbEntity
  8
SLD-0
  6
Continuous
 62
   179
370
    15
100
AcDbCircle
 10
49.1631277926
 20
266.3017321535
 30
0.0
 40
2.250000000000114
  0
ARC
  5
B9
330
1F
100
AcDbEntity
  8
SLD-0
  6
Continuous
 62
   179
370
    15
100
AcDbCircle
 10
54.305868046
 20
246.5594545355
 30
0.0
 40
3.000000000000014
100
AcDbArc
 50
270.0
 51
0.0
  0
ARC
  5
BA
330
1F
100
AcDbEntity
  8
SLD-0
  6
Continuous
 62
   179
370
    15
100
AcDbCircle
 10
54.305868046
 20
256.0440097715
 30
0.0
 40
3.000000000000014
100
AcDbArc
 50
0.0
 51
90.0
  0
ARC
  5
BB
330
1F
100
AcDbEntity
  8
SLD-0
  6
Continuous
 62
   179
370
    15
100
AcDbCircle
 10
44.0203875392
 20
256.0440097715
 30
0.0
 40
3.000000000000007
100
AcDbArc
 50
90.0
 51
180.0
  0
ARC
  5
BC
330
1F
100
AcDbEntity
  8
SLD-0
  6
Continuous
 62
   179
370
    15
100
AcDbCircle
 10
44.0203875392
 20
246.5594545355
 30
0.0
 40
3.000000000000007
100
AcDbArc
 50
180.0
 51
270.0
  0
CIRCLE
  5
BD
330
1F
100
AcDbEntity
  8
SLD-0
  6
Continuous
 62
   179
370
    15
100
AcDbCircle
 10
74.6631277926
 20
275.3017321535
 30
0.0
 40
1.750000000000057
  0
CIRCLE
  5
BE
330
1F
100
AcDbEntity
  8
SLD-0
  6
Continuous
 62
   179
370
    15
100
AcDbCircle
 10
74.6631277926
 20
227.3017321535
 30
0.0
 40
1.749999999999972
  0
CIRCLE
  5
BF
330
1F
100
AcDbEntity
  8
SLD-0
  6
Continuous
 62
   179
370
    15
100
AcDbCircle
 10
23.6631277926
 20
227.3017321535
 30
0.0
 40
1.749999999999972
  0
CIRCLE
  5
C0
330
1F
100
AcDbEntity
  8
SLD-0
  6
Continuous
 62
   179
370
    15
100
AcDbCircle
 10
23.6631277926
 20
275.3017321535
 30
0.0
 40
1.750000000000057
  0
ARC
  5
C1
330
1F
100
AcDbEntity
  8
SLD-0
  6
Continuous
 62
   179
370
    15
100
AcDbCircle
 10
28.4645532041
 20
277.3017321535
 30
0.0
 40
3.0
100
AcDbArc
 50
46.4441255309
 51
90.0
  0
ARC
  5
C2
330
1F
100
AcDbEntity
  8
SLD-0
  6
Continuous
 62
   179
370
    15
100
AcDbCircle
 10
38.2237713468
 20
276.3017321535
 30
0.0
 40
3.00000000000108
100
AcDbArc
 50
226.4441255314
 51
270.0
  0
ARC
  5
C3
330
1F
100
AcDbEntity
  8
SLD-0
  6
Continuous
 62
   179
370
    15
100
AcDbCircle
 10
60.1024842386
 20
276.3017321535
 30
0.0
 40
3.000000000000057
100
AcDbArc
 50
270.0
 51
313.5558744691
  0
ARC
  5
C4
330
1F
100
AcDbEntity
  8
SLD-0
  6
Continuous
 62
   179
370
    15
100
AcDbCircle
 10
69.8617023813
 20
277.3017321535
 30
0.0
 40
3.000000000001023
100
AcDbArc
 50
90.0
 51
133.5558744686
  0
ARC
  5
C5
330
1F
100
AcDbEntity
  8
SLD-0
  6
Continuous
 62
   179
370
    15
100
AcDbCircle
 10
76.6631277927
 20
277.3017321535
 30
0.0
 40
3.0
100
AcDbArc
 50
0.0
 51
90.0
  0
ARC
  5
C6
330
1F
100
AcDbEntity
  8
SLD-0
  6
Continuous
 62
   179
370
    15
100
AcDbCircle
 10
64.3010588271
 20
252.5555464791
 30
0.0
 40
3.000000000035513
100
AcDbArc
 50
133.5558744699
 51
180.0
  0
ARC
  5
C7
330
1F
100
AcDbEntity
  8
SLD-0
  6
Continuous
 62
   179
370
    15
100
AcDbCircle
 10
64.3010588271
 20
250.0479178279
 30
0.0
 40
3.000000000000024
100
AcDbArc
 50
180.0
 51
226.4441255309
  0
ARC
  5
C8
330
1F
100
AcDbEntity
  8
SLD-0
  6
Continuous
 62
   179
370
    15
100
AcDbCircle
 10
76.6631277926
 20
230.0145628725
 30
0.0
 40
3.000000000002063
100
AcDbArc
 50
0.0
 51
46.4441255314
  0
ARC
  5
C9
330
1F
100
AcDbEntity
  8
SLD-0
  6
Continuous
 62
   179
370
    15
100
AcDbCircle
 10
76.6631277926
 20
225.3017321535
 30
0.0
 40
3.0
100
AcDbArc
 50
270.0
 51
0.0
  0
ARC
  5
CA
330
1F
100
AcDbEntity
  8
SLD-0
  6
Continuous
 62
   179
370
    15
100
AcDbCircle
 10
69.8617023812
 20
225.3017321535
 30
0.0
 40
3.00000000000003
100
AcDbArc
 50
226.4441255309
 51
270.0
  0
ARC
  5
CB
330
1F
100
AcDbEntity
  8
SLD-0
  6
Continuous
 62
   179
370
    15
100
AcDbCircle
 10
60.1024842385
 20
226.3017321535
 30
0.0
 40
3.000000000002047
100
AcDbArc
 50
46.4441255314
 51
90.0
  0
ARC
  5
CC
330
1F
100
AcDbEntity
  8
SLD-0
  6
Continuous
 62
   179
370
    15
100
AcDbCircle
 10
38.2237713467
 20
226.3017321535
 30
0.0
 40
3.000000000000034
100
AcDbArc
 50
90.0
 51
133.5558744691
  0
ARC
  5
CD
330
1F
100
AcDbEntity
  8
SLD-0
  6
Continuous
 62
   179
370
    15
100
AcDbCircle
 10
28.464553204
 20
225.3017321535
 30
0.0
 40
3.00000000000204
100
AcDbArc
 50
270.0
 51
313.5558744686
  0
ARC
  5
CE
330
1F
100
AcDbEntity
  8
SLD-0
  6
Continuous
 62
   179
370
    15
100
AcDbCircle
 10
21.6631277926
 20
225.3017321535
 30
0.0
 40
3.000000000000004
100
AcDbArc
 50
180.0
 51
270.0
  0
ARC
  5
CF
330
1F
100
AcDbEntity
  8
SLD-0
  6
Continuous
 62
   179
370
    15
100
AcDbCircle
 10
21.6631277926
 20
230.0145628725
 30
0.0
 40
3.000000000000034
100
AcDbArc
 50
133.5558744691
 51
180.0
  0
ARC
  5
D0
330
1F
100
AcDbEntity
  8
SLD-0
  6
Continuous
 62
   179
370
    15
100
AcDbCircle
 10
34.0251967581
 20
250.0479178279
 30
0.0
 40
3.000000000001996
100
AcDbArc
 50
313.5558744686
 51
0.0
  0
ARC
  5
D1
330
1F
100
AcDbEntity
  8
SLD-0
  6
Continuous
 62
   179
370
    15
100
AcDbCircle
 10
34.0251967581
 20
252.5555464791
 30
0.0
 40
3.000000000000099
100
AcDbArc
 50
0.0
 51
46.4441255309
  0
ARC
  5
D2
330
1F
100
AcDbEntity
  8
SLD-0
  6
Continuous
 62
   179
370
    15
100
AcDbCircle
 10
21.6631277926
 20
272.5889014344
 30
0.0
 40
2.999999999965961
100
AcDbArc
 50
180.0
 51
226.4441255301
  0
ARC
  5
D3
330
1F
100
AcDbEntity
  8
SLD-0
  6
Continuous
 62
   179
370
    15
100
AcDbCircle
 10
21.6631277927
 20
277.3017321535
 30
0.0
 40
3.0
100
AcDbArc
 50
90.0
 51
180.0
  0
CIRCLE
  5
D4
330
1F
100
AcDbEntity
  8
SLD-0
  6
Continuous
 62
   179
370
    15
100
AcDbCircle
 10
49.1631277926
 20
236.3017321535
 30
0.0
 40
2.249999999999972
  0
ARC
  5
D5
330
1F
100
AcDbEntity
  8
SLD-0
  6
Continuous
 62
   179
370
    15
100
AcDbCircle
 10
76.6631277926
 20
272.5889014344
 30
0.0
 40
2.999999999964844
100
AcDbArc
 50
313.5558744699
 51
0.0
  0
ARC
  5
D6
330
1F
100
AcDbEntity
  8
SLD-0
  6
Continuous
 62
   179
370
    15
100
AcDbCircle
 10
330.1631277926
 20
170.0892321535
 30
0.0
 40
10.00000000000003
100
AcDbArc
 50
180.0
 51
270.0
  0
ARC
  5
D7
330
1F
100
AcDbEntity
  8
SLD-0
  6
Continuous
 62
   179
370
    15
100
AcDbCircle
 10
335.1631277926
 20
157.0892321535
 30
0.0
 40
4.00000000000002
100
AcDbArc
 50
131.4096221093
 51
48.5903778907
  0
ARC
  5
D8
330
1F
100
AcDbEntity
  8
SLD-0
  6
Continuous
 62
   179
370
    15
100
AcDbCircle
 10
340.1631277926
 20
272.0892321535
 30
0.0
 40
10.00000000000011
100
AcDbArc
 50
0.0000000001
 51
90.0
  0
CIRCLE
  5
D9
330
1F
100
AcDbEntity
  8
SLD-0
  6
Continuous
 62
   179
370
    15
100
AcDbCircle
 10
163.1484091668
 20
64.5745135277
 30
0.0
 40
2.050000000001972
  0
CIRCLE
  5
DA
330
1F
100
AcDbEntity
  8
SLD-0
  6
Continuous
 62
   179
370
    15
100
AcDbCircle
 10
741.1778464183
 20
377.6039507793
 30
0.0
 40
2.050000000001887
  0
ARC
  5
DB
330
1F
100
AcDbEntity
  8
SLD-0
  6
Continuous
 62
   179
370
    15
100
AcDbCircle
 10
330.1631277926
 20
272.0892321535
 30
0.0
 40
10.0
100
AcDbArc
 50
90.0
 51
180.0
  0
ARC
  5
DC
330
1F
100
AcDbEntity
  8
SLD-0
  6
Continuous
 62
   179
370
    15
100
AcDbCircle
 10
762.7131277926
 20
388.5892321535
 30
0.0
 40
20.00000000000011
100
AcDbArc
 50
0.0
 51
90.0
  0
CIRCLE
  5
DD
330
1F
100
AcDbEntity
  8
SLD-0
  6
Continuous
 62
   179
370
    15
100
AcDbCircle
 10
741.1778464183
 20
64.5745135277
 30
0.0
 40
2.050000000002001
  0
CIRCLE
  5
DE
330
1F
100
AcDbEntity
  8
SLD-0
  6
Continuous
 62
   179
370
    15
100
AcDbCircle
 10
163.1484091668
 20
377.6039507793
 30
0.0
 40
2.050000000001887
  0
ARC
  5
DF
330
1F
100
AcDbEntity
  8
SLD-0
  6
Continuous
 62
   179
370
    15
100
AcDbCircle
 10
141.6131277926
 20
53.5892321535
 30
0.0
 40
20.00000000000001
100
AcDbArc
 50
180.0
 51
270.0
  0
ARC
  5
E0
330
1F
100
AcDbEntity
  8
SLD-0
  6
Continuous
 62
   179
370
    15
100
AcDbCircle
 10
335.1631277926
 20
285.0892321535
 30
0.0
 40
4.000000000011677
100
AcDbArc
 50
311.4096221093
 51
228.5903778903
  0
ARC
  5
E1
330
1F
100
AcDbEntity
  8
SLD-0
  6
Continuous
 62
   179
370
    15
100
AcDbCircle
 10
762.7131277926
 20
53.5892321535
 30
0.0
 40
20.0
100
AcDbArc
 50
270.0
 51
0.0
  0
ARC
  5
E2
330
1F
100
AcDbEntity
  8
SLD-0
  6
Continuous
 62
   179
370
    15
100
AcDbCircle
 10
141.6131277926
 20
388.5892321535
 30
0.0
 40
20.00000000000001
100
AcDbArc
 50
90.0
 51
180.0
  0
ARC
  5
E3
330
1F
100
AcDbEntity
  8
SLD-0
  6
Continuous
 62
   179
370
    15
100
AcDbCircle
 10
340.1631277926
 20
170.0892321535
 30
0.0
 40
10.0
100
AcDbArc
 50
270.0
 51
0.0
  0
CIRCLE
  5
E4
330
1F
100
AcDbEntity
  8
SLD-0
  6
Continuous
 62
   179
370
    15
100
AcDbCircle
 10
87.087748995
 20
358.2219161044
 30
0.0
 40
2.050000000032313
  0
CIRCLE
  5
E5
330
1F
100
AcDbEntity
  8
SLD-0
  6
Continuous
 62
   179
370
    15
100
AcDbCircle
 10
55.2679438416
 20
326.402110951
 30
0.0
 40
2.050000000032078
  0
ARC
  5
E6
330
1F
100
AcDbEntity
  8
SLD-0
  6
Continuous
 62
   179
370
    15
100
AcDbCircle
 10
69.6631277926
 20
343.8267321535
 30
0.0
 40
10.0
100
AcDbArc
 50
270.0
 51
0.0
  0
CIRCLE
  5
E7
330
1F
100
AcDbEntity
  8
SLD-0
  6
Continuous
 62
   179
370
    15
100
AcDbCircle
 10
87.087748995
 20
269.4315482026
 30
0.0
 40
2.050000000032313
  0
CIRCLE
  5
E8
330
1F
100
AcDbEntity
  8
SLD-0
  6
Continuous
 62
   179
370
    15
100
AcDbCircle
 10
55.2679438416
 20
301.2513533559
 30
0.0
 40
2.050000000032078
  0
ARC
  5
E9
330
1F
100
AcDbEntity
  8
SLD-0
  6
Continuous
 62
   179
370
    15
100
AcDbCircle
 10
69.6631277926
 20
283.8267321535
 30
0.0
 40
10.0
100
AcDbArc
 50
0.0
 51
90.0
  0
CIRCLE
  5
EA
330
1F
100
AcDbEntity
  8
SLD-0
  6
Continuous
 62
   179
370
    15
100
AcDbCircle
 10
87.087748995
 20
89.9065482026
 30
0.0
 40
2.050000000032313
  0
CIRCLE
  5
EB
330
1F
100
AcDbEntity
  8
SLD-0
  6
Continuous
 62
   179
370
    15
100
AcDbCircle
 10
55.2679438416
 20
121.7263533559
 30
0.0
 40
2.050000000032078
  0
ARC
  5
EC
330
1F
100
AcDbEntity
  8
SLD-0
  6
Continuous
 62
   179
370
    15
100
AcDbCircle
 10
69.6631277926
 20
104.3017321535
 30
0.0
 40
10.00000000000003
100
AcDbArc
 50
0.0
 51
90.0
  0
CIRCLE
  5
ED
330
1F
100
AcDbEntity
  8
SLD-0
  6
Continuous
 62
   179
370
    15
100
AcDbCircle
 10
87.087748995
 20
178.6969161044
 30
0.0
 40
2.050000000032313
  0
CIRCLE
  5
EE
330
1F
100
AcDbEntity
  8
SLD-0
  6
Continuous
 62
   179
370
    15
100
AcDbCircle
 10
55.2679438416
 20
146.877110951
 30
0.0
 40
2.050000000032078
  0
ARC
  5
EF
330
1F
100
AcDbEntity
  8
SLD-0
  6
Continuous
 62
   179
370
    15
100
AcDbCircle
 10
69.6631277926
 20
164.3017321535
 30
0.0
 40
10.0
100
AcDbArc
 50
270.0
 51
0.0
  0
ENDSEC
  0
SECTION
  2
OBJECTS
  0
DICTIONARY
  5
C
330
0
100
AcDbDictionary
281
     1
  3
ACAD_GROUP
350
D
  3
ACAD_LAYOUT
350
1A
  3
ACAD_MLINESTYLE
350
17
  3
ACAD_PLOTSETTINGS
350
19
  3
ACAD_PLOTSTYLENAME
350
E
  0
DICTIONARY
  5
D
102
{ACAD_REACTORS
330
C
102
}
330
C
100
AcDbDictionary
281
     1
  0
DICTIONARY
  5
1A
102
{ACAD_REACTORS
330
C
102
}
330
C
100
AcDbDictionary
281
     1
  3
Layout1
350
1E
  3
Layout2
350
26
  3
Model
350
22
  0
DICTIONARY
  5
17
102
{ACAD_REACTORS
330
C
102
}
330
C
100
AcDbDictionary
281
     1
  3
Standard
350
18
  0
DICTIONARY
  5
19
102
{ACAD_REACTORS
330
C
102
}
330
C
100
AcDbDictionary
281
     1
  0
ACDBDICTIONARYWDFLT
  5
E
102
{ACAD_REACTORS
330
C
102
}
330
C
100
AcDbDictionary
281
     1
  3
Normal
350
F
100
AcDbDictionaryWithDefault
340
F
  0
LAYOUT
  5
1E
102
{ACAD_REACTORS
330
1A
102
}
330
1A
100
AcDbPlotSettings
  1

  2
none_device
  4

  6

 40
0.0
 41
0.0
 42
0.0
 43
0.0
 44
0.0
 45
0.0
 46
0.0
 47
0.0
 48
0.0
 49
0.0
140
0.0
141
0.0
142
1.0
143
1.0
 70
   688
 72
     0
 73
     0
 74
     5
  7

 75
    16
147
1.0
148
0.0
149
0.0
100
AcDbLayout
  1
Layout1
 70
     1
 71
     1
 10
0.0
 20
0.0
 11
420.0
 21
297.0
 12
0.0
 22
0.0
 32
0.0
 14
1.0000000000E+20
 24
1.0000000000E+20
 34
1.0000000000E+20
 15
-1.0000000000E+20
 25
-1.0000000000E+20
 35
-1.0000000000E+20
146
0.0
 13
0.0
 23
0.0
 33
0.0
 16
1.0
 26
0.0
 36
0.0
 17
0.0
 27
1.0
 37
0.0
 76
     0
330
1B
  0
LAYOUT
  5
26
102
{ACAD_REACTORS
330
1A
102
}
330
1A
100
AcDbPlotSettings
  1

  2
none_device
  4

  6

 40
0.0
 41
0.0
 42
0.0
 43
0.0
 44
0.0
 45
0.0
 46
0.0
 47
0.0
 48
0.0
 49
0.0
140
0.0
141
0.0
142
1.0
143
1.0
 70
   688
 72
     0
 73
     0
 74
     5
  7

 75
    16
147
1.0
148
0.0
149
0.0
100
AcDbLayout
  1
Layout2
 70
     1
 71
     2
 10
0.0
 20
0.0
 11
0.0
 21
0.0
 12
0.0
 22
0.0
 32
0.0
 14
0.0
 24
0.0
 34
0.0
 15
0.0
 25
0.0
 35
0.0
146
0.0
 13
0.0
 23
0.0
 33
0.0
 16
1.0
 26
0.0
 36
0.0
 17
0.0
 27
1.0
 37
0.0
 76
     0
330
23
  0
LAYOUT
  5
22
102
{ACAD_REACTORS
330
1A
102
}
330
1A
100
AcDbPlotSettings
  1

  2
none_device
  4

  6

 40
0.0
 41
0.0
 42
0.0
 43
0.0
 44
0.0
 45
0.0
 46
0.0
 47
0.0
 48
0.0
 49
0.0
140
0.0
141
0.0
142
1.0
143
1.0
 70
  1712
 72
     0
 73
     0
 74
     0
  7

 75
     0
147
1.0
148
0.0
149
0.0
100
AcDbLayout
  1
Model
 70
     1
 71
     0
 10
0.0
 20
0.0
 11
800.0
 21
450.0
 12
0.0
 22
0.0
 32
0.0
 14
0.0
 24
0.0
 34
0.0
 15
800.0
 25
450.0
 35
0.0
146
0.0
 13
0.0
 23
0.0
 33
0.0
 16
1.0
 26
0.0
 36
0.0
 17
0.0
 27
1.0
 37
0.0
 76
     0
330
1F
331
29
  0
MLINESTYLE
  5
18
102
{ACAD_REACTORS
330
17
102
}
330
17
100
AcDbMlineStyle
  2
Standard
 70
     0
  3

 62
   256
 51
90.0
 52
90.0
 71
     2
 49
0.5
 62
   256
  6
BYLAYER
 49
-0.5
 62
   256
  6
BYLAYER
  0
ACDBPLACEHOLDER
  5
F
102
{ACAD_REACTORS
330
E
102
}
330
E
  0
ENDSEC
  0
EOF
