  0
SECTION
  2
HEADER
  9
$ACADVER
  1
AC1015
  9
$ACADMAINTVER
 70
     6
  9
$DWGCODEPAGE
  3
ANSI_1252
  9
$INSBASE
 10
0.0
 20
0.0
 30
0.0
  9
$EXTMIN
 10
0.0
 20
0.0
 30
0.0
  9
$EXTMAX
 10
450.0
 20
450.0
 30
0.0
  9
$LIMMIN
 10
0.0
 20
0.0
  9
$LIMMAX
 10
450.0
 20
450.0
  9
$ORTHOMODE
 70
     0
  9
$REGENMODE
 70
     1
  9
$FILLMODE
 70
     1
  9
$QTEXTMODE
 70
     0
  9
$MIRRTEXT
 70
     1
  9
$LTSCALE
 40
1.0
  9
$ATTMODE
 70
     1
  9
$TEXTSIZE
 40
3.5
  9
$TRACEWID
 40
1.0
  9
$TEXTSTYLE
  7
Standard
  9
$CLAYER
  8
0
  9
$CELTYPE
  6
ByLayer
  9
$CECOLOR
 62
   256
  9
$CELTSCALE
 40
1.0
  9
$DISPSILH
 70
     0
  9
$DIMSCALE
 40
1.0
  9
$DIMASZ
 40
3.302
  9
$DIMEXO
 40
1.0
  9
$DIMDLI
 40
3.75
  9
$DIMRND
 40
0.0
  9
$DIMDLE
 40
0.0
  9
$DIMEXE
 40
1.0
  9
$DIMTP
 40
0.0
  9
$DIMTM
 40
0.0
  9
$DIMTXT
 40
3.5
  9
$DIMCEN
 40
2.5
  9
$DIMTSZ
 40
0.0
  9
$DIMTOL
 70
     0
  9
$DIMLIM
 70
     0
  9
$DIMTIH
 70
     1
  9
$DIMTOH
 70
     1
  9
$DIMSE1
 70
     0
  9
$DIMSE2
 70
     0
  9
$DIMTAD
 70
     1
  9
$DIMZIN
 70
     1
  9
$DIMBLK
  1

  9
$DIMASO
 70
     1
  9
$DIMSHO
 70
     1
  9
$DIMPOST
  1

  9
$DIMAPOST
  1

  9
$DIMALT
 70
     0
  9
$DIMALTD
 70
     3
  9
$DIMALTF
 40
0.0393700787
  9
$DIMLFAC
 40
1.0
  9
$DIMTOFL
 70
     1
  9
$DIMTVP
 40
0.0
  9
$DIMTIX
 70
     0
  9
$DIMSOXD
 70
     0
  9
$DIMSAH
 70
     0
  9
$DIMBLK1
  1

  9
$DIMBLK2
  1

  9
$DIMSTYLE
  2
ISO-25
  9
$DIMCLRD
 70
     0
  9
$DIMCLRE
 70
     0
  9
$DIMCLRT
 70
     0
  9
$DIMTFAC
 40
1.0
  9
$DIMGAP
 40
1.524
  9
$DIMJUST
 70
     0
  9
$DIMSD1
 70
     0
  9
$DIMSD2
 70
     0
  9
$DIMTOLJ
 70
     0
  9
$DIMTZIN
 70
     1
  9
$DIMALTZ
 70
     0
  9
$DIMALTTZ
 70
     0
  9
$DIMUPT
 70
     0
  9
$DIMDEC
 70
     2
  9
$DIMTDEC
 70
     2
  9
$DIMALTU
 70
     2
  9
$DIMALTTD
 70
     3
  9
$DIMTXSTY
  7
Standard
  9
$DIMAUNIT
 70
     0
  9
$DIMADEC
 70
     2
  9
$DIMALTRND
 40
0.0
  9
$DIMAZIN
 70
     0
  9
$DIMDSEP
 70
    44
  9
$DIMATFIT
 70
     3
  9
$DIMFRAC
 70
     0
  9
$DIMLDRBLK
  1

  9
$DIMLUNIT
 70
     2
  9
$DIMLWD
 70
    -2
  9
$DIMLWE
 70
    -2
  9
$DIMTMOVE
 70
     0
  9
$LUNITS
 70
     2
  9
$LUPREC
 70
     2
  9
$SKETCHINC
 40
1.0
  9
$FILLETRAD
 40
10.0
  9
$AUNITS
 70
     0
  9
$AUPREC
 70
     2
  9
$MENU
  1
.
  9
$ELEVATION
 40
0.0
  9
$PELEVATION
 40
0.0
  9
$THICKNESS
 40
0.0
  9
$LIMCHECK
 70
     0
  9
$CHAMFERA
 40
10.0
  9
$CHAMFERB
 40
10.0
  9
$CHAMFERC
 40
20.0
  9
$CHAMFERD
 40
0.0
  9
$SKPOLY
 70
     0
  9
$TDCREATE
 40
2458317.520197257
  9
$TDUCREATE
 40
2458317.436863923
  9
$TDUPDATE
 40
2458317.520197373
  9
$TDUUPDATE
 40
2458317.436864039
  9
$TDINDWG
 40
0.0000000116
  9
$TDUSRTIMER
 40
0.0000000116
  9
$USRTIMER
 70
     1
  9
$ANGBASE
 50
0.0
  9
$ANGDIR
 70
     0
  9
$PDMODE
 70
     0
  9
$PDSIZE
 40
-1.0
  9
$PLINEWID
 40
0.0
  9
$SPLFRAME
 70
     0
  9
$SPLINETYPE
 70
     6
  9
$SPLINESEGS
 70
     8
  9
$HANDSEED
  5
F0
  9
$SURFTAB1
 70
     6
  9
$SURFTAB2
 70
     6
  9
$SURFTYPE
 70
     6
  9
$SURFU
 70
     6
  9
$SURFV
 70
     6
  9
$UCSBASE
  2

  9
$UCSNAME
  2

  9
$UCSORG
 10
0.0
 20
0.0
 30
0.0
  9
$UCSXDIR
 10
1.0
 20
0.0
 30
0.0
  9
$UCSYDIR
 10
0.0
 20
1.0
 30
0.0
  9
$UCSORTHOREF
  2

  9
$UCSORTHOVIEW
 70
     0
  9
$UCSORGTOP
 10
0.0
 20
0.0
 30
0.0
  9
$UCSORGBOTTOM
 10
0.0
 20
0.0
 30
0.0
  9
$UCSORGLEFT
 10
0.0
 20
0.0
 30
0.0
  9
$UCSORGRIGHT
 10
0.0
 20
0.0
 30
0.0
  9
$UCSORGFRONT
 10
0.0
 20
0.0
 30
0.0
  9
$UCSORGBACK
 10
0.0
 20
0.0
 30
0.0
  9
$PUCSBASE
  2

  9
$PUCSNAME
  2

  9
$PUCSORG
 10
0.0
 20
0.0
 30
0.0
  9
$PUCSXDIR
 10
1.0
 20
0.0
 30
0.0
  9
$PUCSYDIR
 10
0.0
 20
1.0
 30
0.0
  9
$PUCSORTHOREF
  2

  9
$PUCSORTHOVIEW
 70
     0
  9
$PUCSORGTOP
 10
0.0
 20
0.0
 30
0.0
  9
$PUCSORGBOTTOM
 10
0.0
 20
0.0
 30
0.0
  9
$PUCSORGLEFT
 10
0.0
 20
0.0
 30
0.0
  9
$PUCSORGRIGHT
 10
0.0
 20
0.0
 30
0.0
  9
$PUCSORGFRONT
 10
0.0
 20
0.0
 30
0.0
  9
$PUCSORGBACK
 10
0.0
 20
0.0
 30
0.0
  9
$USERI1
 70
     0
  9
$USERI2
 70
     0
  9
$USERI3
 70
     0
  9
$USERI4
 70
     0
  9
$USERI5
 70
     0
  9
$USERR1
 40
0.0
  9
$USERR2
 40
0.0
  9
$USERR3
 40
0.0
  9
$USERR4
 40
0.0
  9
$USERR5
 40
0.0
  9
$WORLDVIEW
 70
     1
  9
$SHADEDGE
 70
     3
  9
$SHADEDIF
 70
    70
  9
$TILEMODE
 70
     1
  9
$MAXACTVP
 70
    64
  9
$PINSBASE
 10
0.0
 20
0.0
 30
0.0
  9
$PLIMCHECK
 70
     0
  9
$PEXTMIN
 10
1.0000000000E+20
 20
1.0000000000E+20
 30
1.0000000000E+20
  9
$PEXTMAX
 10
-1.0000000000E+20
 20
-1.0000000000E+20
 30
-1.0000000000E+20
  9
$PLIMMIN
 10
0.0
 20
0.0
  9
$PLIMMAX
 10
420.0
 20
297.0
  9
$UNITMODE
 70
     0
  9
$VISRETAIN
 70
     1
  9
$PLINEGEN
 70
     0
  9
$PSLTSCALE
 70
     1
  9
$TREEDEPTH
 70
  3020
  9
$CMLSTYLE
  2
Standard
  9
$CMLJUST
 70
     0
  9
$CMLSCALE
 40
20.0
  9
$PROXYGRAPHICS
 70
     1
  9
$MEASUREMENT
 70
     1
  9
$CELWEIGHT
370
    -1
  9
$ENDCAPS
280
     0
  9
$JOINSTYLE
280
     0
  9
$LWDISPLAY
290
     1
  9
$INSUNITS
 70
     4
  9
$HYPERLINKBASE
  1

  9
$STYLESHEET
  1

  9
$XEDIT
290
     1
  9
$CEPSNTYPE
380
     0
  9
$PSTYLEMODE
290
     1
  9
$FINGERPRINTGUID
  2
{066253FC-313D-466E-AC48-EB05E12CF4AE}
  9
$VERSIONGUID
  2
{FAEB1C32-E019-11D5-929B-00C0DF256EC4}
  9
$EXTNAMES
290
     1
  9
$PSVPSCALE
 40
0.0
  9
$OLESTARTUP
290
     0
  0
ENDSEC
  0
SECTION
  2
CLASSES
  0
CLASS
  1
ACDBDICTIONARYWDFLT
  2
AcDbDictionaryWithDefault
  3
ObjectDBX Classes
 90
        0
280
     0
281
     0
  0
CLASS
  1
VISUALSTYLE
  2
AcDbVisualStyle
  3
ObjectDBX Classes
 90
     4095
280
     0
281
     0
  0
CLASS
  1
MATERIAL
  2
AcDbMaterial
  3
ObjectDBX Classes
 90
     1153
280
     0
281
     0
  0
CLASS
  1
ACDBPLACEHOLDER
  2
AcDbPlaceHolder
  3
ObjectDBX Classes
 90
        0
280
     0
281
     0
  0
CLASS
  1
LAYOUT
  2
AcDbLayout
  3
ObjectDBX Classes
 90
        0
280
     0
281
     0
  0
ENDSEC
  0
SECTION
  2
TABLES
  0
TABLE
  2
VPORT
  5
8
330
0
100
AcDbSymbolTable
 70
     1
  0
VPORT
  5
29
330
8
100
AcDbSymbolTableRecord
100
AcDbViewportTableRecord
  2
*Active
 70
     0
 10
0.0
 20
0.0
 11
1.0
 21
1.0
 12
225.0
 22
225.0
 13
0.0
 23
0.0
 14
10.0
 24
10.0
 15
10.0
 25
10.0
 16
0.0
 26
0.0
 36
1.0
 17
0.0
 27
0.0
 37
0.0
 40
450.0
 41
1.0
 42
50.0
 43
0.0
 44
0.0
 50
0.0
 51
0.0
 71
     0
 72
  2000
 73
     1
 74
     3
 75
     0
 76
     0
 77
     0
 78
     0
281
     0
 65
     1
110
0.0
120
0.0
130
0.0
111
1.0
121
0.0
131
0.0
112
0.0
122
1.0
132
0.0
 79
     0
146
0.0
  0
ENDTAB
  0
TABLE
  2
LTYPE
  5
5
330
0
100
AcDbSymbolTable
 70
     6
  0
LTYPE
  5
14
330
5
100
AcDbSymbolTableRecord
100
AcDbLinetypeTableRecord
  2
ByBlock
 70
     0
  3

 72
    65
 73
     0
 40
0.0
  0
LTYPE
  5
15
330
5
100
AcDbSymbolTableRecord
100
AcDbLinetypeTableRecord
  2
ByLayer
 70
     0
  3

 72
    65
 73
     0
 40
0.0
  0
LTYPE
  5
16
330
5
100
AcDbSymbolTableRecord
100
AcDbLinetypeTableRecord
  2
Continuous
 70
     0
  3
Solid line
 72
    65
 73
     0
 40
0.0
  0
LTYPE
  5
3F
330
5
100
AcDbSymbolTableRecord
100
AcDbLinetypeTableRecord
  2
HIDDEN
 70
     0
  3
Hidden __ __ __ __ __ __ __ __ __ __ __ __ __ __
 72
    65
 73
     2
 40
1.905
 49
1.27
 74
     0
 49
-0.635
 74
     0
  0
LTYPE
  5
40
330
5
100
AcDbSymbolTableRecord
100
AcDbLinetypeTableRecord
  2
PHANTOM
 70
     0
  3
Phantom ______  __  __  ______  __  __  ______
 72
    65
 73
     6
 40
12.7
 49
6.35
 74
     0
 49
-1.27
 74
     0
 49
1.27
 74
     0
 49
-1.27
 74
     0
 49
1.27
 74
     0
 49
-1.27
 74
     0
  0
LTYPE
  5
41
330
5
100
AcDbSymbolTableRecord
100
AcDbLinetypeTableRecord
  2
CENTER
 70
     0
  3
Center ____ _ ____ _ ____ _ ____ _ ____ _ ____
 72
    65
 73
     4
 40
10.16
 49
6.35
 74
     0
 49
-1.27
 74
     0
 49
1.27
 74
     0
 49
-1.27
 74
     0
  0
LTYPE
  5
42
330
5
100
AcDbSymbolTableRecord
100
AcDbLinetypeTableRecord
  2
CENTERX2
 70
     0
  3
Center (2x) ________  __  ________  __  _____
 72
    65
 73
     4
 40
20.32
 49
12.7
 74
     0
 49
-2.54
 74
     0
 49
2.54
 74
     0
 49
-2.54
 74
     0
  0
LTYPE
  5
43
330
5
100
AcDbSymbolTableRecord
100
AcDbLinetypeTableRecord
  2
DOT2
 70
     0
  3
Dot (.5x) ........................................
 72
    65
 73
     2
 40
0.635
 49
0.0
 74
     0
 49
-0.635
 74
     0
  0
ENDTAB
  0
TABLE
  2
LAYER
  5
2
330
0
100
AcDbSymbolTable
 70
     2
  0
LAYER
  5
10
330
2
100
AcDbSymbolTableRecord
100
AcDbLayerTableRecord
  2
0
 70
     0
 62
     7
  6
Continuous
370
    -3
390
F
  0
LAYER
  5
44
330
2
100
AcDbSymbolTableRecord
100
AcDbLayerTableRecord
  2
SLD-0
 70
     0
 62
   179
  6
Continuous
370
    -3
390
F
  0
ENDTAB
  0
TABLE
  2
STYLE
  5
3
330
0
100
AcDbSymbolTable
 70
     1
  0
STYLE
  5
11
330
3
100
AcDbSymbolTableRecord
100
AcDbTextStyleTableRecord
  2
Standard
 70
     0
 40
0.0
 41
1.0
 50
0.0
 71
     0
 42
3.5
  3
txt
  4

  0
ENDTAB
  0
TABLE
  2
VIEW
  5
6
330
0
100
AcDbSymbolTable
 70
     0
  0
ENDTAB
  0
TABLE
  2
UCS
  5
7
330
0
100
AcDbSymbolTable
 70
     0
  0
ENDTAB
  0
TABLE
  2
APPID
  5
9
330
0
100
AcDbSymbolTable
 70
     1
  0
APPID
  5
12
330
9
100
AcDbSymbolTableRecord
100
AcDbRegAppTableRecord
  2
ACAD
 70
     0
  0
ENDTAB
  0
TABLE
  2
DIMSTYLE
  5
A
330
0
100
AcDbSymbolTable
 70
     1
100
AcDbDimStyleTable
  0
DIMSTYLE
105
27
330
A
100
AcDbSymbolTableRecord
100
AcDbDimStyleTableRecord
  2
ISO-25
 70
     0
 41
2.5
 42
0.625
 43
3.75
 44
1.25
 73
     0
 74
     0
 77
     1
 78
     8
140
2.5
141
2.5
143
0.0393700787
147
0.625
171
     3
172
     1
178
     0
271
     2
272
     2
274
     3
278
    44
283
     0
284
     8
340
11
  0
ENDTAB
  0
TABLE
  2
BLOCK_RECORD
  5
1
330
0
100
AcDbSymbolTable
 70
     1
  0
BLOCK_RECORD
  5
1F
330
1
100
AcDbSymbolTableRecord
100
AcDbBlockTableRecord
  2
*Model_Space
340
22
  0
BLOCK_RECORD
  5
1B
330
1
100
AcDbSymbolTableRecord
100
AcDbBlockTableRecord
  2
*Paper_Space
340
1E
  0
BLOCK_RECORD
  5
23
330
1
100
AcDbSymbolTableRecord
100
AcDbBlockTableRecord
  2
*Paper_Space0
340
26
  0
ENDTAB
  0
ENDSEC
  0
SECTION
  2
BLOCKS
  0
BLOCK
  5
20
330
1F
100
AcDbEntity
  8
0
100
AcDbBlockBegin
  2
*Model_Space
 70
     0
 10
0.0
 20
0.0
 30
0.0
  3
*Model_Space
  1

  0
ENDBLK
  5
21
330
1F
100
AcDbEntity
  8
0
100
AcDbBlockEnd
  0
BLOCK
  5
1C
330
1B
100
AcDbEntity
 67
     1
  8
0
100
AcDbBlockBegin
  2
*Paper_Space
 70
     0
 10
0.0
 20
0.0
 30
0.0
  3
*Paper_Space
  1

  0
ENDBLK
  5
1D
330
1B
100
AcDbEntity
 67
     1
  8
0
100
AcDbBlockEnd
  0
BLOCK
  5
24
330
23
100
AcDbEntity
  8
0
100
AcDbBlockBegin
  2
*Paper_Space0
 70
     0
 10
0.0
 20
0.0
 30
0.0
  3
*Paper_Space0
  1

  0
ENDBLK
  5
25
330
23
100
AcDbEntity
  8
0
100
AcDbBlockEnd
  0
ENDSEC
  0
SECTION
  2
ENTITIES
  0
LINE
  5
45
330
1F
100
AcDbEntity
  8
SLD-0
  6
Continuous
 62
   179
370
    15
100
AcDbLine
 10
131.3648313892
 20
340.9364962885
 30
0.0
 11
131.3648313892
 21
220.9364962885
 31
0.0
  0
LINE
  5
46
330
1F
100
AcDbEntity
  8
SLD-0
  6
Continuous
 62
   179
370
    15
100
AcDbLine
 10
251.3648313892
 20
340.9364962885
 30
0.0
 11
131.3648313892
 21
340.9364962885
 31
0.0
  0
LINE
  5
47
330
1F
100
AcDbEntity
  8
SLD-0
  6
Continuous
 62
   179
370
    15
100
AcDbLine
 10
251.3648313892
 20
260.9364962885
 30
0.0
 11
251.3648313892
 21
340.9364962885
 31
0.0
  0
LINE
  5
48
330
1F
100
AcDbEntity
  8
SLD-0
  6
Continuous
 62
   179
370
    15
100
AcDbLine
 10
211.3648313892
 20
220.9364962885
 30
0.0
 11
251.3648313892
 21
260.9364962885
 31
0.0
  0
LINE
  5
49
330
1F
100
AcDbEntity
  8
SLD-0
  6
Continuous
 62
   179
370
    15
100
AcDbLine
 10
131.3648313892
 20
220.9364962885
 30
0.0
 11
211.3648313892
 21
220.9364962885
 31
0.0
  0
LINE
  5
4A
330
1F
100
AcDbEntity
  8
SLD-0
  6
Continuous
 62
   179
370
    15
100
AcDbLine
 10
238.8648313892
 20
218.4364962885
 30
0.0
 11
238.8648313892
 21
133.4364962885
 31
0.0
  0
LINE
  5
4B
330
1F
100
AcDbEntity
  8
SLD-0
  6
Continuous
 62
   179
370
    15
100
AcDbLine
 10
238.8648313892
 20
133.4364962885
 30
0.0
 11
323.8648313892
 21
133.4364962885
 31
0.0
  0
LINE
  5
4C
330
1F
100
AcDbEntity
  8
SLD-0
  6
Continuous
 62
   179
370
    15
100
AcDbLine
 10
323.8648313892
 20
133.4364962885
 30
0.0
 11
323.8648313892
 21
218.4364962885
 31
0.0
  0
LINE
  5
4D
330
1F
100
AcDbEntity
  8
SLD-0
  6
Continuous
 62
   179
370
    15
100
AcDbLine
 10
323.8648313892
 20
218.4364962885
 30
0.0
 11
238.8648313892
 21
218.4364962885
 31
0.0
  0
LINE
  5
4E
330
1F
100
AcDbEntity
  8
SLD-0
  6
Continuous
 62
   179
370
    15
100
AcDbLine
 10
221.3648313892
 20
230.9364962885
 30
0.0
 11
221.3648313892
 21
110.9364962885
 31
0.0
  0
LINE
  5
4F
330
1F
100
AcDbEntity
  8
SLD-0
  6
Continuous
 62
   179
370
    15
100
AcDbLine
 10
321.3648313892
 20
110.9364962885
 30
0.0
 11
341.3648313892
 21
130.9364962885
 31
0.0
  0
LINE
  5
50
330
1F
100
AcDbEntity
  8
SLD-0
  6
Continuous
 62
   179
370
    15
100
AcDbLine
 10
341.3648313892
 20
230.9364962885
 30
0.0
 11
221.3648313892
 21
230.9364962885
 31
0.0
  0
LINE
  5
51
330
1F
100
AcDbEntity
  8
SLD-0
  6
Continuous
 62
   179
370
    15
100
AcDbLine
 10
16.3648313893
 20
48.4364962885
 30
0.0
 11
16.3648313893
 21
15.9364962885
 31
0.0
  0
LINE
  5
52
330
1F
100
AcDbEntity
  8
SLD-0
  6
Continuous
 62
   179
370
    15
100
AcDbLine
 10
16.3648313893
 20
48.4364962885
 30
0.0
 11
10.3648313893
 21
48.4364962885
 31
0.0
  0
LINE
  5
53
330
1F
100
AcDbEntity
  8
SLD-0
  6
Continuous
 62
   179
370
    15
100
AcDbLine
 10
10.3648313893
 20
133.4364962885
 30
0.0
 11
10.3648313893
 21
48.4364962885
 31
0.0
  0
LINE
  5
54
330
1F
100
AcDbEntity
  8
SLD-0
  6
Continuous
 62
   179
370
    15
100
AcDbLine
 10
16.3648313893
 20
133.4364962885
 30
0.0
 11
10.3648313893
 21
133.4364962885
 31
0.0
  0
LINE
  5
55
330
1F
100
AcDbEntity
  8
SLD-0
  6
Continuous
 62
   179
370
    15
100
AcDbLine
 10
16.3648313893
 20
320.9364962885
 30
0.0
 11
16.3648313893
 21
133.4364962885
 31
0.0
  0
LINE
  5
56
330
1F
100
AcDbEntity
  8
SLD-0
  6
Continuous
 62
   179
370
    15
100
AcDbLine
 10
10.3648313893
 20
320.9364962885
 30
0.0
 11
16.3648313893
 21
320.9364962885
 31
0.0
  0
LINE
  5
57
330
1F
100
AcDbEntity
  8
SLD-0
  6
Continuous
 62
   179
370
    15
100
AcDbLine
 10
10.3648313893
 20
400.9364962885
 30
0.0
 11
10.3648313893
 21
320.9364962885
 31
0.0
  0
LINE
  5
58
330
1F
100
AcDbEntity
  8
SLD-0
  6
Continuous
 62
   179
370
    15
100
AcDbLine
 10
10.3648313893
 20
400.9364962885
 30
0.0
 11
16.3648313893
 21
400.9364962885
 31
0.0
  0
LINE
  5
59
330
1F
100
AcDbEntity
  8
SLD-0
  6
Continuous
 62
   179
370
    15
100
AcDbLine
 10
16.3648313893
 20
410.9364962885
 30
0.0
 11
16.3648313893
 21
400.9364962885
 31
0.0
  0
LINE
  5
5A
330
1F
100
AcDbEntity
  8
SLD-0
  6
Continuous
 62
   179
370
    15
100
AcDbLine
 10
41.3648313893
 20
435.9364962885
 30
0.0
 11
16.3648313893
 21
410.9364962885
 31
0.0
  0
LINE
  5
5B
330
1F
100
AcDbEntity
  8
SLD-0
  6
Continuous
 62
   179
370
    15
100
AcDbLine
 10
48.8648313893
 20
435.9364962885
 30
0.0
 11
41.3648313893
 21
435.9364962885
 31
0.0
  0
LINE
  5
5C
330
1F
100
AcDbEntity
  8
SLD-0
  6
Continuous
 62
   179
370
    15
100
AcDbLine
 10
48.8648313893
 20
435.9364962885
 30
0.0
 11
48.8648313893
 21
441.9364962885
 31
0.0
  0
LINE
  5
5D
330
1F
100
AcDbEntity
  8
SLD-0
  6
Continuous
 62
   179
370
    15
100
AcDbLine
 10
133.8648313893
 20
441.9364962885
 30
0.0
 11
48.8648313893
 21
441.9364962885
 31
0.0
  0
LINE
  5
5E
330
1F
100
AcDbEntity
  8
SLD-0
  6
Continuous
 62
   179
370
    15
100
AcDbLine
 10
133.8648313893
 20
435.9364962885
 30
0.0
 11
133.8648313893
 21
441.9364962885
 31
0.0
  0
LINE
  5
5F
330
1F
100
AcDbEntity
  8
SLD-0
  6
Continuous
 62
   179
370
    15
100
AcDbLine
 10
321.3648313893
 20
435.9364962885
 30
0.0
 11
133.8648313893
 21
435.9364962885
 31
0.0
  0
LINE
  5
60
330
1F
100
AcDbEntity
  8
SLD-0
  6
Continuous
 62
   179
370
    15
100
AcDbLine
 10
321.3648313893
 20
441.9364962885
 30
0.0
 11
321.3648313893
 21
435.9364962885
 31
0.0
  0
LINE
  5
61
330
1F
100
AcDbEntity
  8
SLD-0
  6
Continuous
 62
   179
370
    15
100
AcDbLine
 10
401.3648313891
 20
441.9364962885
 30
0.0
 11
321.3648313893
 21
441.9364962885
 31
0.0
  0
LINE
  5
62
330
1F
100
AcDbEntity
  8
SLD-0
  6
Continuous
 62
   179
370
    15
100
AcDbLine
 10
401.3648313891
 20
441.9364962885
 30
0.0
 11
401.3648313891
 21
435.9364962886
 31
0.0
  0
LINE
  5
63
330
1F
100
AcDbEntity
  8
SLD-0
  6
Continuous
 62
   179
370
    15
100
AcDbLine
 10
436.3648313891
 20
435.9364962886
 30
0.0
 11
401.3648313891
 21
435.9364962886
 31
0.0
  0
LINE
  5
64
330
1F
100
AcDbEntity
  8
SLD-0
  6
Continuous
 62
   179
370
    15
100
AcDbLine
 10
436.3648313891
 20
435.9364962886
 30
0.0
 11
393.9384245179
 21
393.5100894174
 31
0.0
  0
LINE
  5
65
330
1F
100
AcDbEntity
  8
SLD-0
  6
Continuous
 62
   179
370
    15
100
AcDbLine
 10
393.9384245179
 20
393.5100894174
 30
0.0
 11
401.0094923298
 21
386.4390216056
 31
0.0
  0
LINE
  5
66
330
1F
100
AcDbEntity
  8
SLD-0
  6
Continuous
 62
   179
370
    15
100
AcDbLine
 10
401.0094923298
 20
386.4390216056
 30
0.0
 11
365.6541532704
 21
351.0836825462
 31
0.0
  0
LINE
  5
67
330
1F
100
AcDbEntity
  8
SLD-0
  6
Continuous
 62
   179
370
    15
100
AcDbLine
 10
358.5830854586
 20
358.154750358
 30
0.0
 11
335.5069670129
 21
335.0786319123
 31
0.0
  0
LINE
  5
68
330
1F
100
AcDbEntity
  8
SLD-0
  6
Continuous
 62
   179
370
    15
100
AcDbLine
 10
321.3648313892
 20
340.9364962885
 30
0.0
 11
131.3648313892
 21
340.9364962885
 31
0.0
  0
LINE
  5
69
330
1F
100
AcDbEntity
  8
SLD-0
  6
Continuous
 62
   179
370
    15
100
AcDbLine
 10
111.3648313892
 20
320.9364962885
 30
0.0
 11
111.3648313892
 21
130.9364962885
 31
0.0
  0
LINE
  5
6A
330
1F
100
AcDbEntity
  8
SLD-0
  6
Continuous
 62
   179
370
    15
100
AcDbLine
 10
117.2226957655
 20
116.7943606648
 30
0.0
 11
94.1465773197
 21
93.7182422191
 31
0.0
  0
LINE
  5
6B
330
1F
100
AcDbEntity
  8
SLD-0
  6
Continuous
 62
   179
370
    15
100
AcDbLine
 10
87.0755095079
 20
100.7893100309
 30
0.0
 11
94.1465773197
 21
93.7182422191
 31
0.0
  0
LINE
  5
6C
330
1F
100
AcDbEntity
  8
SLD-0
  6
Continuous
 62
   179
370
    15
100
AcDbLine
 10
51.7201704486
 20
65.4339709716
 30
0.0
 11
87.0755095079
 21
100.7893100309
 31
0.0
  0
LINE
  5
6D
330
1F
100
AcDbEntity
  8
SLD-0
  6
Continuous
 62
   179
370
    15
100
AcDbLine
 10
58.7912382605
 20
58.3629031597
 30
0.0
 11
51.7201704486
 21
65.4339709716
 31
0.0
  0
LINE
  5
6E
330
1F
100
AcDbEntity
  8
SLD-0
  6
Continuous
 62
   179
370
    15
100
AcDbLine
 10
16.3648313893
 20
15.9364962885
 30
0.0
 11
58.7912382605
 21
58.3629031597
 31
0.0
  0
LINE
  5
6F
330
1F
100
AcDbEntity
  8
SLD-0
  6
Continuous
 62
   179
370
    15
100
AcDbLine
 10
386.3648313892
 20
432.9364962884
 30
0.0
 11
386.3648313892
 21
436.0364962884
 31
0.0
  0
LINE
  5
70
330
1F
100
AcDbEntity
  8
SLD-0
  6
Continuous
 62
   179
370
    15
100
AcDbLine
 10
336.3648313892
 20
436.0364962884
 30
0.0
 11
386.3648313892
 21
436.0364962884
 31
0.0
  0
LINE
  5
71
330
1F
100
AcDbEntity
  8
SLD-0
  6
Continuous
 62
   179
370
    15
100
AcDbLine
 10
336.3648313892
 20
432.9364962884
 30
0.0
 11
336.3648313892
 21
436.0364962884
 31
0.0
  0
LINE
  5
72
330
1F
100
AcDbEntity
  8
SLD-0
  6
Continuous
 62
   179
370
    15
100
AcDbLine
 10
336.3648313892
 20
432.9364962884
 30
0.0
 11
386.3648313892
 21
432.9364962884
 31
0.0
  0
LINE
  5
73
330
1F
100
AcDbEntity
  8
SLD-0
  6
Continuous
 62
   179
370
    15
100
AcDbLine
 10
71.683590522
 20
412.9364962885
 30
0.0
 11
61.7840955854
 21
412.9364962884
 31
0.0
  0
LINE
  5
74
330
1F
100
AcDbEntity
  8
SLD-0
  6
Continuous
 62
   179
370
    15
100
AcDbLine
 10
39.3648313892
 20
390.5172320922
 30
0.0
 11
61.7840955854
 21
412.9364962884
 31
0.0
  0
LINE
  5
75
330
1F
100
AcDbEntity
  8
SLD-0
  6
Continuous
 62
   179
370
    15
100
AcDbLine
 10
39.3648313892
 20
380.6177371556
 30
0.0
 11
39.3648313892
 21
390.5172320922
 31
0.0
  0
LINE
  5
76
330
1F
100
AcDbEntity
  8
SLD-0
  6
Continuous
 62
   179
370
    15
100
AcDbLine
 10
71.683590522
 20
412.9364962885
 30
0.0
 11
39.3648313892
 21
380.6177371556
 31
0.0
  0
LINE
  5
77
330
1F
100
AcDbEntity
  8
SLD-0
  6
Continuous
 62
   179
370
    15
100
AcDbLine
 10
115.5242109556
 20
412.9364962884
 30
0.0
 11
105.624716019
 21
412.9364962884
 31
0.0
  0
LINE
  5
78
330
1F
100
AcDbEntity
  8
SLD-0
  6
Continuous
 62
   179
370
    15
100
AcDbLine
 10
39.3648313892
 20
346.6766116586
 30
0.0
 11
105.624716019
 21
412.9364962884
 31
0.0
  0
LINE
  5
79
330
1F
100
AcDbEntity
  8
SLD-0
  6
Continuous
 62
   179
370
    15
100
AcDbLine
 10
39.3648313892
 20
336.777116722
 30
0.0
 11
39.3648313892
 21
346.6766116586
 31
0.0
  0
LINE
  5
7A
330
1F
100
AcDbEntity
  8
SLD-0
  6
Continuous
 62
   179
370
    15
100
AcDbLine
 10
115.5242109556
 20
412.9364962884
 30
0.0
 11
39.3648313892
 21
336.777116722
 31
0.0
  0
LINE
  5
7B
330
1F
100
AcDbEntity
  8
SLD-0
  6
Continuous
 62
   179
370
    15
100
AcDbLine
 10
39.3648313892
 20
292.9364962884
 30
0.0
 11
39.3648313892
 21
302.8359912251
 31
0.0
  0
LINE
  5
7C
330
1F
100
AcDbEntity
  8
SLD-0
  6
Continuous
 62
   179
370
    15
100
AcDbLine
 10
159.3648313892
 20
412.9364962884
 30
0.0
 11
39.3648313892
 21
292.9364962884
 31
0.0
  0
LINE
  5
7D
330
1F
100
AcDbEntity
  8
SLD-0
  6
Continuous
 62
   179
370
    15
100
AcDbLine
 10
159.3648313892
 20
412.9364962884
 30
0.0
 11
149.4653364526
 21
412.9364962885
 31
0.0
  0
LINE
  5
7E
330
1F
100
AcDbEntity
  8
SLD-0
  6
Continuous
 62
   179
370
    15
100
AcDbLine
 10
39.3648313892
 20
302.8359912251
 30
0.0
 11
149.4653364526
 21
412.9364962885
 31
0.0
  0
LINE
  5
7F
330
1F
100
AcDbEntity
  8
SLD-0
  6
Continuous
 62
   179
370
    15
100
AcDbLine
 10
19.3648313892
 20
385.9364962884
 30
0.0
 11
16.2648313892
 21
385.9364962884
 31
0.0
  0
LINE
  5
80
330
1F
100
AcDbEntity
  8
SLD-0
  6
Continuous
 62
   179
370
    15
100
AcDbLine
 10
16.2648313892
 20
335.9364962884
 30
0.0
 11
16.2648313892
 21
385.9364962884
 31
0.0
  0
LINE
  5
81
330
1F
100
AcDbEntity
  8
SLD-0
  6
Continuous
 62
   179
370
    15
100
AcDbLine
 10
19.3648313892
 20
335.9364962884
 30
0.0
 11
16.2648313892
 21
335.9364962884
 31
0.0
  0
LINE
  5
82
330
1F
100
AcDbEntity
  8
SLD-0
  6
Continuous
 62
   179
370
    15
100
AcDbLine
 10
19.3648313892
 20
335.9364962884
 30
0.0
 11
19.3648313892
 21
385.9364962884
 31
0.0
  0
LINE
  5
83
330
1F
100
AcDbEntity
  8
SLD-0
  6
Continuous
 62
   179
370
    15
100
AcDbLine
 10
116.3648313892
 20
432.9364962884
 30
0.0
 11
116.3648313892
 21
436.0364962884
 31
0.0
  0
LINE
  5
84
330
1F
100
AcDbEntity
  8
SLD-0
  6
Continuous
 62
   179
370
    15
100
AcDbLine
 10
116.3648313892
 20
436.0364962884
 30
0.0
 11
66.3648313892
 21
436.0364962884
 31
0.0
  0
LINE
  5
85
330
1F
100
AcDbEntity
  8
SLD-0
  6
Continuous
 62
   179
370
    15
100
AcDbLine
 10
66.3648313892
 20
432.9364962884
 30
0.0
 11
66.3648313892
 21
436.0364962884
 31
0.0
  0
LINE
  5
86
330
1F
100
AcDbEntity
  8
SLD-0
  6
Continuous
 62
   179
370
    15
100
AcDbLine
 10
116.3648313892
 20
432.9364962884
 30
0.0
 11
66.3648313892
 21
432.9364962884
 31
0.0
  0
LINE
  5
87
330
1F
100
AcDbEntity
  8
SLD-0
  6
Continuous
 62
   179
370
    15
100
AcDbLine
 10
137.4445211724
 20
412.9364962884
 30
0.0
 11
127.5450262358
 21
412.9364962884
 31
0.0
  0
LINE
  5
88
330
1F
100
AcDbEntity
  8
SLD-0
  6
Continuous
 62
   179
370
    15
100
AcDbLine
 10
39.3648313892
 20
324.7563014418
 30
0.0
 11
127.5450262358
 21
412.9364962884
 31
0.0
  0
LINE
  5
89
330
1F
100
AcDbEntity
  8
SLD-0
  6
Continuous
 62
   179
370
    15
100
AcDbLine
 10
39.3648313892
 20
314.8568065052
 30
0.0
 11
39.3648313892
 21
324.7563014418
 31
0.0
  0
LINE
  5
8A
330
1F
100
AcDbEntity
  8
SLD-0
  6
Continuous
 62
   179
370
    15
100
AcDbLine
 10
137.4445211724
 20
412.9364962884
 30
0.0
 11
39.3648313892
 21
314.8568065052
 31
0.0
  0
LINE
  5
8B
330
1F
100
AcDbEntity
  8
SLD-0
  6
Continuous
 62
   179
370
    15
100
AcDbLine
 10
93.6039007388
 20
412.9364962884
 30
0.0
 11
83.7044058022
 21
412.9364962884
 31
0.0
  0
LINE
  5
8C
330
1F
100
AcDbEntity
  8
SLD-0
  6
Continuous
 62
   179
370
    15
100
AcDbLine
 10
39.3648313892
 20
368.5969218754
 30
0.0
 11
83.7044058022
 21
412.9364962884
 31
0.0
  0
LINE
  5
8D
330
1F
100
AcDbEntity
  8
SLD-0
  6
Continuous
 62
   179
370
    15
100
AcDbLine
 10
39.3648313892
 20
358.6974269388
 30
0.0
 11
39.3648313892
 21
368.5969218754
 31
0.0
  0
LINE
  5
8E
330
1F
100
AcDbEntity
  8
SLD-0
  6
Continuous
 62
   179
370
    15
100
AcDbLine
 10
49.7632803052
 20
412.9364962885
 30
0.0
 11
39.3648313892
 21
412.9364962885
 31
0.0
  0
LINE
  5
8F
330
1F
100
AcDbEntity
  8
SLD-0
  6
Continuous
 62
   179
370
    15
100
AcDbLine
 10
39.3648313892
 20
402.5380473724
 30
0.0
 11
39.3648313892
 21
412.9364962885
 31
0.0
  0
LINE
  5
90
330
1F
100
AcDbEntity
  8
SLD-0
  6
Continuous
 62
   179
370
    15
100
AcDbLine
 10
49.7632803052
 20
412.9364962885
 30
0.0
 11
39.3648313892
 21
402.5380473724
 31
0.0
  0
LINE
  5
91
330
1F
100
AcDbEntity
  8
SLD-0
  6
Continuous
 62
   179
370
    15
100
AcDbLine
 10
19.3648313892
 20
115.9364962884
 30
0.0
 11
16.2648313892
 21
115.9364962884
 31
0.0
  0
LINE
  5
92
330
1F
100
AcDbEntity
  8
SLD-0
  6
Continuous
 62
   179
370
    15
100
AcDbLine
 10
16.2648313892
 20
115.9364962884
 30
0.0
 11
16.2648313892
 21
65.9364962884
 31
0.0
  0
LINE
  5
93
330
1F
100
AcDbEntity
  8
SLD-0
  6
Continuous
 62
   179
370
    15
100
AcDbLine
 10
19.3648313892
 20
65.9364962884
 30
0.0
 11
16.2648313892
 21
65.9364962884
 31
0.0
  0
LINE
  5
94
330
1F
100
AcDbEntity
  8
SLD-0
  6
Continuous
 62
   179
370
    15
100
AcDbLine
 10
19.3648313892
 20
115.9364962884
 30
0.0
 11
19.3648313892
 21
65.9364962884
 31
0.0
  0
LINE
  5
95
330
1F
100
AcDbEntity
  8
SLD-0
  6
Continuous
 62
   179
370
    15
100
AcDbLine
 10
357.5224252869
 20
387.4996817772
 30
0.0
 11
359.6437456305
 21
385.3783614337
 31
0.0
  0
LINE
  5
96
330
1F
100
AcDbEntity
  8
SLD-0
  6
Continuous
 62
   179
370
    15
100
AcDbLine
 10
359.6437456305
 20
385.3783614337
 30
0.0
 11
366.7148134422
 21
392.4494292455
 31
0.0
  0
LINE
  5
97
330
1F
100
AcDbEntity
  8
SLD-0
  6
Continuous
 62
   179
370
    15
100
AcDbLine
 10
366.7148134422
 20
392.4494292455
 30
0.0
 11
364.5934930987
 21
394.570749589
 31
0.0
  0
LINE
  5
98
330
1F
100
AcDbEntity
  8
SLD-0
  6
Continuous
 62
   179
370
    15
100
AcDbLine
 10
364.5934930987
 20
394.570749589
 30
0.0
 11
357.5224252869
 21
387.4996817772
 31
0.0
  0
LINE
  5
99
330
1F
100
AcDbEntity
  8
SLD-0
  6
Continuous
 62
   179
370
    15
100
AcDbLine
 10
57.7305780886
 20
87.7078345789
 30
0.0
 11
59.8518984322
 21
85.5865142353
 31
0.0
  0
LINE
  5
9A
330
1F
100
AcDbEntity
  8
SLD-0
  6
Continuous
 62
   179
370
    15
100
AcDbLine
 10
59.8518984322
 20
85.5865142353
 30
0.0
 11
66.9229662441
 21
92.6575820472
 31
0.0
  0
LINE
  5
9B
330
1F
100
AcDbEntity
  8
SLD-0
  6
Continuous
 62
   179
370
    15
100
AcDbLine
 10
93.6039007388
 20
412.9364962884
 30
0.0
 11
39.3648313892
 21
358.6974269388
 31
0.0
  0
LINE
  5
9C
330
1F
100
AcDbEntity
  8
SLD-0
  6
Continuous
 62
   179
370
    15
100
AcDbLine
 10
66.9229662441
 20
92.6575820472
 30
0.0
 11
64.8016459004
 21
94.7789023908
 31
0.0
  0
LINE
  5
9D
330
1F
100
AcDbEntity
  8
SLD-0
  6
Continuous
 62
   179
370
    15
100
AcDbLine
 10
64.8016459004
 20
94.7789023908
 30
0.0
 11
57.7305780886
 21
87.7078345789
 31
0.0
  0
LINE
  5
9E
330
1F
100
AcDbEntity
  8
SLD-0
  6
Continuous
 62
   179
370
    15
100
AcDbLine
 10
365.6541532704
 20
351.0836825462
 30
0.0
 11
358.5830854586
 21
358.154750358
 31
0.0
  0
LINE
  5
9F
330
1F
100
AcDbEntity
  8
SLD-0
  6
Continuous
 62
   179
370
    15
100
AcDbLine
 10
436.3648313891
 20
403.4364962886
 30
0.0
 11
436.3648313891
 21
435.9364962886
 31
0.0
  0
LINE
  5
A0
330
1F
100
AcDbEntity
  8
SLD-0
  6
Continuous
 62
   179
370
    15
100
AcDbLine
 10
436.3648313891
 20
403.4364962886
 30
0.0
 11
442.3648313893
 21
403.4364962886
 31
0.0
  0
LINE
  5
A1
330
1F
100
AcDbEntity
  8
SLD-0
  6
Continuous
 62
   179
370
    15
100
AcDbLine
 10
442.3648313893
 20
318.4364962885
 30
0.0
 11
442.3648313893
 21
403.4364962886
 31
0.0
  0
LINE
  5
A2
330
1F
100
AcDbEntity
  8
SLD-0
  6
Continuous
 62
   179
370
    15
100
AcDbLine
 10
436.3648313893
 20
318.4364962885
 30
0.0
 11
442.3648313893
 21
318.4364962885
 31
0.0
  0
LINE
  5
A3
330
1F
100
AcDbEntity
  8
SLD-0
  6
Continuous
 62
   179
370
    15
100
AcDbLine
 10
436.3648313893
 20
130.9364962885
 30
0.0
 11
436.3648313893
 21
318.4364962885
 31
0.0
  0
LINE
  5
A4
330
1F
100
AcDbEntity
  8
SLD-0
  6
Continuous
 62
   179
370
    15
100
AcDbLine
 10
442.3648313893
 20
130.9364962885
 30
0.0
 11
436.3648313893
 21
130.9364962885
 31
0.0
  0
LINE
  5
A5
330
1F
100
AcDbEntity
  8
SLD-0
  6
Continuous
 62
   179
370
    15
100
AcDbLine
 10
442.3648313893
 20
50.9364962885
 30
0.0
 11
442.3648313893
 21
130.9364962885
 31
0.0
  0
LINE
  5
A6
330
1F
100
AcDbEntity
  8
SLD-0
  6
Continuous
 62
   179
370
    15
100
AcDbLine
 10
442.3648313893
 20
50.9364962885
 30
0.0
 11
436.3648313893
 21
50.9364962885
 31
0.0
  0
LINE
  5
A7
330
1F
100
AcDbEntity
  8
SLD-0
  6
Continuous
 62
   179
370
    15
100
AcDbLine
 10
436.3648313893
 20
40.9364962885
 30
0.0
 11
436.3648313893
 21
50.9364962885
 31
0.0
  0
LINE
  5
A8
330
1F
100
AcDbEntity
  8
SLD-0
  6
Continuous
 62
   179
370
    15
100
AcDbLine
 10
411.3648313893
 20
15.9364962885
 30
0.0
 11
436.3648313893
 21
40.9364962885
 31
0.0
  0
LINE
  5
A9
330
1F
100
AcDbEntity
  8
SLD-0
  6
Continuous
 62
   179
370
    15
100
AcDbLine
 10
403.8648313893
 20
15.9364962885
 30
0.0
 11
411.3648313893
 21
15.9364962885
 31
0.0
  0
LINE
  5
AA
330
1F
100
AcDbEntity
  8
SLD-0
  6
Continuous
 62
   179
370
    15
100
AcDbLine
 10
403.8648313893
 20
15.9364962885
 30
0.0
 11
403.8648313893
 21
9.9364962885
 31
0.0
  0
LINE
  5
AB
330
1F
100
AcDbEntity
  8
SLD-0
  6
Continuous
 62
   179
370
    15
100
AcDbLine
 10
318.8648313893
 20
9.9364962885
 30
0.0
 11
403.8648313893
 21
9.9364962885
 31
0.0
  0
LINE
  5
AC
330
1F
100
AcDbEntity
  8
SLD-0
  6
Continuous
 62
   179
370
    15
100
AcDbLine
 10
318.8648313893
 20
15.9364962885
 30
0.0
 11
318.8648313893
 21
9.9364962885
 31
0.0
  0
LINE
  5
AD
330
1F
100
AcDbEntity
  8
SLD-0
  6
Continuous
 62
   179
370
    15
100
AcDbLine
 10
131.3648313893
 20
15.9364962885
 30
0.0
 11
318.8648313893
 21
15.9364962885
 31
0.0
  0
LINE
  5
AE
330
1F
100
AcDbEntity
  8
SLD-0
  6
Continuous
 62
   179
370
    15
100
AcDbLine
 10
131.3648313893
 20
9.9364962885
 30
0.0
 11
131.3648313893
 21
15.9364962885
 31
0.0
  0
LINE
  5
AF
330
1F
100
AcDbEntity
  8
SLD-0
  6
Continuous
 62
   179
370
    15
100
AcDbLine
 10
51.3648313893
 20
9.9364962885
 30
0.0
 11
131.3648313893
 21
9.9364962885
 31
0.0
  0
LINE
  5
B0
330
1F
100
AcDbEntity
  8
SLD-0
  6
Continuous
 62
   179
370
    15
100
AcDbLine
 10
51.3648313893
 20
9.9364962885
 30
0.0
 11
51.3648313893
 21
15.9364962885
 31
0.0
  0
LINE
  5
B1
330
1F
100
AcDbEntity
  8
SLD-0
  6
Continuous
 62
   179
370
    15
100
AcDbLine
 10
16.3648313893
 20
15.9364962885
 30
0.0
 11
51.3648313893
 21
15.9364962885
 31
0.0
  0
LINE
  5
B2
330
1F
100
AcDbEntity
  8
SLD-0
  6
Continuous
 62
   179
370
    15
100
AcDbLine
 10
131.3648313892
 20
110.9364962885
 30
0.0
 11
321.3648313892
 21
110.9364962885
 31
0.0
  0
LINE
  5
B3
330
1F
100
AcDbEntity
  8
SLD-0
  6
Continuous
 62
   179
370
    15
100
AcDbLine
 10
341.3648313892
 20
130.9364962885
 30
0.0
 11
341.3648313892
 21
320.9364962884
 31
0.0
  0
LINE
  5
B4
330
1F
100
AcDbEntity
  8
SLD-0
  6
Continuous
 62
   179
370
    15
100
AcDbLine
 10
66.3648313892
 20
18.9364962884
 30
0.0
 11
66.3648313892
 21
15.8364962884
 31
0.0
  0
LINE
  5
B5
330
1F
100
AcDbEntity
  8
SLD-0
  6
Continuous
 62
   179
370
    15
100
AcDbLine
 10
116.3648313892
 20
15.8364962884
 30
0.0
 11
66.3648313892
 21
15.8364962884
 31
0.0
  0
LINE
  5
B6
330
1F
100
AcDbEntity
  8
SLD-0
  6
Continuous
 62
   179
370
    15
100
AcDbLine
 10
116.3648313892
 20
18.9364962884
 30
0.0
 11
116.3648313892
 21
15.8364962884
 31
0.0
  0
LINE
  5
B7
330
1F
100
AcDbEntity
  8
SLD-0
  6
Continuous
 62
   179
370
    15
100
AcDbLine
 10
116.3648313892
 20
18.9364962884
 30
0.0
 11
66.3648313892
 21
18.9364962884
 31
0.0
  0
LINE
  5
B8
330
1F
100
AcDbEntity
  8
SLD-0
  6
Continuous
 62
   179
370
    15
100
AcDbLine
 10
381.0460722563
 20
38.9364962884
 30
0.0
 11
390.9455671929
 21
38.9364962884
 31
0.0
  0
LINE
  5
B9
330
1F
100
AcDbEntity
  8
SLD-0
  6
Continuous
 62
   179
370
    15
100
AcDbLine
 10
413.3648313892
 20
61.3557604847
 30
0.0
 11
390.9455671929
 21
38.9364962884
 31
0.0
  0
LINE
  5
BA
330
1F
100
AcDbEntity
  8
SLD-0
  6
Continuous
 62
   179
370
    15
100
AcDbLine
 10
413.3648313892
 20
71.2552554213
 30
0.0
 11
413.3648313892
 21
61.3557604847
 31
0.0
  0
LINE
  5
BB
330
1F
100
AcDbEntity
  8
SLD-0
  6
Continuous
 62
   179
370
    15
100
AcDbLine
 10
381.0460722563
 20
38.9364962884
 30
0.0
 11
413.3648313892
 21
71.2552554213
 31
0.0
  0
LINE
  5
BC
330
1F
100
AcDbEntity
  8
SLD-0
  6
Continuous
 62
   179
370
    15
100
AcDbLine
 10
337.2054518227
 20
38.9364962884
 30
0.0
 11
347.1049467594
 21
38.9364962884
 31
0.0
  0
LINE
  5
BD
330
1F
100
AcDbEntity
  8
SLD-0
  6
Continuous
 62
   179
370
    15
100
AcDbLine
 10
413.3648313893
 20
105.1963809183
 30
0.0
 11
347.1049467594
 21
38.9364962884
 31
0.0
  0
LINE
  5
BE
330
1F
100
AcDbEntity
  8
SLD-0
  6
Continuous
 62
   179
370
    15
100
AcDbLine
 10
413.3648313892
 20
115.0958758549
 30
0.0
 11
413.3648313893
 21
105.1963809183
 31
0.0
  0
LINE
  5
BF
330
1F
100
AcDbEntity
  8
SLD-0
  6
Continuous
 62
   179
370
    15
100
AcDbLine
 10
337.2054518227
 20
38.9364962884
 30
0.0
 11
413.3648313892
 21
115.0958758549
 31
0.0
  0
LINE
  5
C0
330
1F
100
AcDbEntity
  8
SLD-0
  6
Continuous
 62
   179
370
    15
100
AcDbLine
 10
413.3648313892
 20
158.9364962884
 30
0.0
 11
413.3648313892
 21
149.0370013518
 31
0.0
  0
LINE
  5
C1
330
1F
100
AcDbEntity
  8
SLD-0
  6
Continuous
 62
   179
370
    15
100
AcDbLine
 10
293.3648313892
 20
38.9364962884
 30
0.0
 11
413.3648313892
 21
158.9364962884
 31
0.0
  0
LINE
  5
C2
330
1F
100
AcDbEntity
  8
SLD-0
  6
Continuous
 62
   179
370
    15
100
AcDbLine
 10
293.3648313892
 20
38.9364962884
 30
0.0
 11
303.2643263258
 21
38.9364962884
 31
0.0
  0
LINE
  5
C3
330
1F
100
AcDbEntity
  8
SLD-0
  6
Continuous
 62
   179
370
    15
100
AcDbLine
 10
413.3648313892
 20
149.0370013518
 30
0.0
 11
303.2643263258
 21
38.9364962884
 31
0.0
  0
LINE
  5
C4
330
1F
100
AcDbEntity
  8
SLD-0
  6
Continuous
 62
   179
370
    15
100
AcDbLine
 10
433.3648313892
 20
65.9364962884
 30
0.0
 11
436.4648313892
 21
65.9364962884
 31
0.0
  0
LINE
  5
C5
330
1F
100
AcDbEntity
  8
SLD-0
  6
Continuous
 62
   179
370
    15
100
AcDbLine
 10
436.4648313892
 20
115.9364962884
 30
0.0
 11
436.4648313892
 21
65.9364962884
 31
0.0
  0
LINE
  5
C6
330
1F
100
AcDbEntity
  8
SLD-0
  6
Continuous
 62
   179
370
    15
100
AcDbLine
 10
433.3648313892
 20
115.9364962884
 30
0.0
 11
436.4648313892
 21
115.9364962884
 31
0.0
  0
LINE
  5
C7
330
1F
100
AcDbEntity
  8
SLD-0
  6
Continuous
 62
   179
370
    15
100
AcDbLine
 10
433.3648313892
 20
115.9364962884
 30
0.0
 11
433.3648313892
 21
65.9364962884
 31
0.0
  0
LINE
  5
C8
330
1F
100
AcDbEntity
  8
SLD-0
  6
Continuous
 62
   179
370
    15
100
AcDbLine
 10
336.3648313892
 20
18.9364962884
 30
0.0
 11
336.3648313892
 21
15.8364962884
 31
0.0
  0
LINE
  5
C9
330
1F
100
AcDbEntity
  8
SLD-0
  6
Continuous
 62
   179
370
    15
100
AcDbLine
 10
336.3648313892
 20
15.8364962884
 30
0.0
 11
386.3648313892
 21
15.8364962884
 31
0.0
  0
LINE
  5
CA
330
1F
100
AcDbEntity
  8
SLD-0
  6
Continuous
 62
   179
370
    15
100
AcDbLine
 10
386.3648313892
 20
18.9364962884
 30
0.0
 11
386.3648313892
 21
15.8364962884
 31
0.0
  0
LINE
  5
CB
330
1F
100
AcDbEntity
  8
SLD-0
  6
Continuous
 62
   179
370
    15
100
AcDbLine
 10
336.3648313892
 20
18.9364962884
 30
0.0
 11
386.3648313892
 21
18.9364962884
 31
0.0
  0
LINE
  5
CC
330
1F
100
AcDbEntity
  8
SLD-0
  6
Continuous
 62
   179
370
    15
100
AcDbLine
 10
315.285141606
 20
38.9364962884
 30
0.0
 11
325.1846365426
 21
38.9364962884
 31
0.0
  0
LINE
  5
CD
330
1F
100
AcDbEntity
  8
SLD-0
  6
Continuous
 62
   179
370
    15
100
AcDbLine
 10
413.3648313892
 20
127.116691135
 30
0.0
 11
325.1846365426
 21
38.9364962884
 31
0.0
  0
LINE
  5
CE
330
1F
100
AcDbEntity
  8
SLD-0
  6
Continuous
 62
   179
370
    15
100
AcDbLine
 10
413.3648313893
 20
137.0161860716
 30
0.0
 11
413.3648313892
 21
127.116691135
 31
0.0
  0
LINE
  5
CF
330
1F
100
AcDbEntity
  8
SLD-0
  6
Continuous
 62
   179
370
    15
100
AcDbLine
 10
315.285141606
 20
38.9364962884
 30
0.0
 11
413.3648313893
 21
137.0161860716
 31
0.0
  0
LINE
  5
D0
330
1F
100
AcDbEntity
  8
SLD-0
  6
Continuous
 62
   179
370
    15
100
AcDbLine
 10
359.1257620395
 20
38.9364962884
 30
0.0
 11
369.0252569761
 21
38.9364962884
 31
0.0
  0
LINE
  5
D1
330
1F
100
AcDbEntity
  8
SLD-0
  6
Continuous
 62
   179
370
    15
100
AcDbLine
 10
413.3648313892
 20
83.2760707015
 30
0.0
 11
369.0252569761
 21
38.9364962884
 31
0.0
  0
LINE
  5
D2
330
1F
100
AcDbEntity
  8
SLD-0
  6
Continuous
 62
   179
370
    15
100
AcDbLine
 10
413.3648313892
 20
93.1755656381
 30
0.0
 11
413.3648313892
 21
83.2760707015
 31
0.0
  0
LINE
  5
D3
330
1F
100
AcDbEntity
  8
SLD-0
  6
Continuous
 62
   179
370
    15
100
AcDbLine
 10
359.1257620395
 20
38.9364962884
 30
0.0
 11
413.3648313892
 21
93.1755656381
 31
0.0
  0
LINE
  5
D4
330
1F
100
AcDbEntity
  8
SLD-0
  6
Continuous
 62
   179
370
    15
100
AcDbLine
 10
402.9663824731
 20
38.9364962884
 30
0.0
 11
413.3648313892
 21
38.9364962884
 31
0.0
  0
LINE
  5
D5
330
1F
100
AcDbEntity
  8
SLD-0
  6
Continuous
 62
   179
370
    15
100
AcDbLine
 10
413.3648313892
 20
49.3349452045
 30
0.0
 11
413.3648313892
 21
38.9364962884
 31
0.0
  0
LINE
  5
D6
330
1F
100
AcDbEntity
  8
SLD-0
  6
Continuous
 62
   179
370
    15
100
AcDbLine
 10
402.9663824731
 20
38.9364962884
 30
0.0
 11
413.3648313892
 21
49.3349452045
 31
0.0
  0
LINE
  5
D7
330
1F
100
AcDbEntity
  8
SLD-0
  6
Continuous
 62
   179
370
    15
100
AcDbLine
 10
433.3648313892
 20
335.9364962884
 30
0.0
 11
436.4648313892
 21
335.9364962884
 31
0.0
  0
LINE
  5
D8
330
1F
100
AcDbEntity
  8
SLD-0
  6
Continuous
 62
   179
370
    15
100
AcDbLine
 10
436.4648313892
 20
335.9364962884
 30
0.0
 11
436.4648313892
 21
385.9364962884
 31
0.0
  0
LINE
  5
D9
330
1F
100
AcDbEntity
  8
SLD-0
  6
Continuous
 62
   179
370
    15
100
AcDbLine
 10
433.3648313892
 20
385.9364962884
 30
0.0
 11
436.4648313892
 21
385.9364962884
 31
0.0
  0
LINE
  5
DA
330
1F
100
AcDbEntity
  8
SLD-0
  6
Continuous
 62
   179
370
    15
100
AcDbLine
 10
433.3648313892
 20
335.9364962884
 30
0.0
 11
433.3648313892
 21
385.9364962884
 31
0.0
  0
LINE
  5
DB
330
1F
100
AcDbEntity
  8
SLD-0
  6
Continuous
 62
   179
370
    15
100
AcDbLine
 10
95.2072374914
 20
64.3733107998
 30
0.0
 11
93.0859171479
 21
66.4946311432
 31
0.0
  0
LINE
  5
DC
330
1F
100
AcDbEntity
  8
SLD-0
  6
Continuous
 62
   179
370
    15
100
AcDbLine
 10
93.0859171479
 20
66.4946311432
 30
0.0
 11
86.0148493361
 21
59.4235633314
 31
0.0
  0
LINE
  5
DD
330
1F
100
AcDbEntity
  8
SLD-0
  6
Continuous
 62
   179
370
    15
100
AcDbLine
 10
86.0148493361
 20
59.4235633314
 30
0.0
 11
88.1361696796
 21
57.3022429879
 31
0.0
  0
LINE
  5
DE
330
1F
100
AcDbEntity
  8
SLD-0
  6
Continuous
 62
   179
370
    15
100
AcDbLine
 10
88.1361696796
 20
57.3022429879
 30
0.0
 11
95.2072374914
 21
64.3733107998
 31
0.0
  0
LINE
  5
DF
330
1F
100
AcDbEntity
  8
SLD-0
  6
Continuous
 62
   179
370
    15
100
AcDbLine
 10
387.9280168779
 20
357.0940901861
 30
0.0
 11
394.9990846898
 21
364.165157998
 31
0.0
  0
LINE
  5
E0
330
1F
100
AcDbEntity
  8
SLD-0
  6
Continuous
 62
   179
370
    15
100
AcDbLine
 10
394.9990846898
 20
364.165157998
 30
0.0
 11
392.8777643462
 21
366.2864783416
 31
0.0
  0
LINE
  5
E1
330
1F
100
AcDbEntity
  8
SLD-0
  6
Continuous
 62
   179
370
    15
100
AcDbLine
 10
392.8777643462
 20
366.2864783416
 30
0.0
 11
385.8066965343
 21
359.2154105297
 31
0.0
  0
LINE
  5
E2
330
1F
100
AcDbEntity
  8
SLD-0
  6
Continuous
 62
   179
370
    15
100
AcDbLine
 10
385.8066965343
 20
359.2154105297
 30
0.0
 11
387.9280168779
 21
357.0940901861
 31
0.0
  0
CIRCLE
  5
E3
330
1F
100
AcDbEntity
  8
SLD-0
  6
Continuous
 62
   179
370
    15
100
AcDbCircle
 10
191.3648313892
 20
285.9364962884
 30
0.0
 40
37.49999999999994
  0
CIRCLE
  5
E4
330
1F
100
AcDbEntity
  8
SLD-0
  6
Continuous
 62
   179
370
    15
100
AcDbCircle
 10
243.8648313892
 20
333.4364962884
 30
0.0
 40
2.5
  0
CIRCLE
  5
E5
330
1F
100
AcDbEntity
  8
SLD-0
  6
Continuous
 62
   179
370
    15
100
AcDbCircle
 10
138.8648313892
 20
333.4364962884
 30
0.0
 40
2.5
  0
CIRCLE
  5
E6
330
1F
100
AcDbEntity
  8
SLD-0
  6
Continuous
 62
   179
370
    15
100
AcDbCircle
 10
138.8648313892
 20
228.4364962884
 30
0.0
 40
2.5
  0
CIRCLE
  5
E7
330
1F
100
AcDbEntity
  8
SLD-0
  6
Continuous
 62
   179
370
    15
100
AcDbCircle
 10
333.8648313892
 20
223.4364962885
 30
0.0
 40
2.5
  0
CIRCLE
  5
E8
330
1F
100
AcDbEntity
  8
SLD-0
  6
Continuous
 62
   179
370
    15
100
AcDbCircle
 10
228.8648313892
 20
223.4364962885
 30
0.0
 40
2.500000000000028
  0
CIRCLE
  5
E9
330
1F
100
AcDbEntity
  8
SLD-0
  6
Continuous
 62
   179
370
    15
100
AcDbCircle
 10
228.8648313892
 20
118.4364962885
 30
0.0
 40
2.5
  0
ARC
  5
EA
330
1F
100
AcDbEntity
  8
SLD-0
  6
Continuous
 62
   179
370
    15
100
AcDbCircle
 10
321.3648313892
 20
320.9364962885
 30
0.0
 40
20.00000000001347
100
AcDbArc
 50
45.0000000002
 51
90.0
  0
ARC
  5
EB
330
1F
100
AcDbEntity
  8
SLD-0
  6
Continuous
 62
   179
370
    15
100
AcDbCircle
 10
131.3648313892
 20
320.9364962885
 30
0.0
 40
20.00000000000006
100
AcDbArc
 50
90.0
 51
180.0
  0
ARC
  5
EC
330
1F
100
AcDbEntity
  8
SLD-0
  6
Continuous
 62
   179
370
    15
100
AcDbCircle
 10
131.3648313892
 20
130.9364962885
 30
0.0
 40
20.00000000000003
100
AcDbArc
 50
180.0
 51
225.0
  0
ARC
  5
ED
330
1F
100
AcDbEntity
  8
SLD-0
  6
Continuous
 62
   179
370
    15
100
AcDbCircle
 10
131.3648313892
 20
130.9364962885
 30
0.0
 40
20.00000000000003
100
AcDbArc
 50
225.0
 51
270.0
  0
ARC
  5
EE
330
1F
100
AcDbEntity
  8
SLD-0
  6
Continuous
 62
   179
370
    15
100
AcDbCircle
 10
321.3648313893
 20
130.9364962885
 30
0.0
 40
19.99999999995001
100
AcDbArc
 50
269.9999999999
 51
0.0000000001
  0
ARC
  5
EF
330
1F
100
AcDbEntity
  8
SLD-0
  6
Continuous
 62
   179
370
    15
100
AcDbCircle
 10
321.3648313892
 20
320.9364962885
 30
0.0
 40
20.00000000001347
100
AcDbArc
 50
359.9999999998
 51
45.0000000002
  0
ENDSEC
  0
SECTION
  2
OBJECTS
  0
DICTIONARY
  5
C
330
0
100
AcDbDictionary
281
     1
  3
ACAD_GROUP
350
D
  3
ACAD_LAYOUT
350
1A
  3
ACAD_MLINESTYLE
350
17
  3
ACAD_PLOTSETTINGS
350
19
  3
ACAD_PLOTSTYLENAME
350
E
  0
DICTIONARY
  5
D
102
{ACAD_REACTORS
330
C
102
}
330
C
100
AcDbDictionary
281
     1
  0
DICTIONARY
  5
1A
102
{ACAD_REACTORS
330
C
102
}
330
C
100
AcDbDictionary
281
     1
  3
Layout1
350
1E
  3
Layout2
350
26
  3
Model
350
22
  0
DICTIONARY
  5
17
102
{ACAD_REACTORS
330
C
102
}
330
C
100
AcDbDictionary
281
     1
  3
Standard
350
18
  0
DICTIONARY
  5
19
102
{ACAD_REACTORS
330
C
102
}
330
C
100
AcDbDictionary
281
     1
  0
ACDBDICTIONARYWDFLT
  5
E
102
{ACAD_REACTORS
330
C
102
}
330
C
100
AcDbDictionary
281
     1
  3
Normal
350
F
100
AcDbDictionaryWithDefault
340
F
  0
LAYOUT
  5
1E
102
{ACAD_REACTORS
330
1A
102
}
330
1A
100
AcDbPlotSettings
  1

  2
none_device
  4

  6

 40
0.0
 41
0.0
 42
0.0
 43
0.0
 44
0.0
 45
0.0
 46
0.0
 47
0.0
 48
0.0
 49
0.0
140
0.0
141
0.0
142
1.0
143
1.0
 70
   688
 72
     0
 73
     0
 74
     5
  7

 75
    16
147
1.0
148
0.0
149
0.0
100
AcDbLayout
  1
Layout1
 70
     1
 71
     1
 10
0.0
 20
0.0
 11
420.0
 21
297.0
 12
0.0
 22
0.0
 32
0.0
 14
1.0000000000E+20
 24
1.0000000000E+20
 34
1.0000000000E+20
 15
-1.0000000000E+20
 25
-1.0000000000E+20
 35
-1.0000000000E+20
146
0.0
 13
0.0
 23
0.0
 33
0.0
 16
1.0
 26
0.0
 36
0.0
 17
0.0
 27
1.0
 37
0.0
 76
     0
330
1B
  0
LAYOUT
  5
26
102
{ACAD_REACTORS
330
1A
102
}
330
1A
100
AcDbPlotSettings
  1

  2
none_device
  4

  6

 40
0.0
 41
0.0
 42
0.0
 43
0.0
 44
0.0
 45
0.0
 46
0.0
 47
0.0
 48
0.0
 49
0.0
140
0.0
141
0.0
142
1.0
143
1.0
 70
   688
 72
     0
 73
     0
 74
     5
  7

 75
    16
147
1.0
148
0.0
149
0.0
100
AcDbLayout
  1
Layout2
 70
     1
 71
     2
 10
0.0
 20
0.0
 11
0.0
 21
0.0
 12
0.0
 22
0.0
 32
0.0
 14
0.0
 24
0.0
 34
0.0
 15
0.0
 25
0.0
 35
0.0
146
0.0
 13
0.0
 23
0.0
 33
0.0
 16
1.0
 26
0.0
 36
0.0
 17
0.0
 27
1.0
 37
0.0
 76
     0
330
23
  0
LAYOUT
  5
22
102
{ACAD_REACTORS
330
1A
102
}
330
1A
100
AcDbPlotSettings
  1

  2
none_device
  4

  6

 40
0.0
 41
0.0
 42
0.0
 43
0.0
 44
0.0
 45
0.0
 46
0.0
 47
0.0
 48
0.0
 49
0.0
140
0.0
141
0.0
142
1.0
143
1.0
 70
  1712
 72
     0
 73
     0
 74
     0
  7

 75
     0
147
1.0
148
0.0
149
0.0
100
AcDbLayout
  1
Model
 70
     1
 71
     0
 10
0.0
 20
0.0
 11
450.0
 21
450.0
 12
0.0
 22
0.0
 32
0.0
 14
0.0
 24
0.0
 34
0.0
 15
450.0
 25
450.0
 35
0.0
146
0.0
 13
0.0
 23
0.0
 33
0.0
 16
1.0
 26
0.0
 36
0.0
 17
0.0
 27
1.0
 37
0.0
 76
     0
330
1F
331
29
  0
MLINESTYLE
  5
18
102
{ACAD_REACTORS
330
17
102
}
330
17
100
AcDbMlineStyle
  2
Standard
 70
     0
  3

 62
   256
 51
90.0
 52
90.0
 71
     2
 49
0.5
 62
   256
  6
BYLAYER
 49
-0.5
 62
   256
  6
BYLAYER
  0
ACDBPLACEHOLDER
  5
F
102
{ACAD_REACTORS
330
E
102
}
330
E
  0
ENDSEC
  0
EOF
